<?xml version="1.0" standalone="no"?>
<!DOCTYPE svg PUBLIC "-//W3C//DTD SVG 1.1//EN" "http://www.w3.org/Graphics/SVG/1.1/DTD/svg11.dtd" >
<svg>
<metadata>
Created by FontForge 20120731 at Sat Sep 14 18:45:34 2019
 By www
angela thomas schmid / prolitteris
</metadata>
<defs>
<font id="billcorporatenarrowW00-light" horiz-adv-x="265" >
  <font-face 
    font-family="billcorporatenarrowW00-light"
    font-weight="300"
    font-stretch="normal"
    units-per-em="1200"
    panose-1="2 11 4 3 5 0 0 2 0 4"
    ascent="960"
    descent="-240"
    x-height="556"
    cap-height="850"
    bbox="-231 -523 1486 1275"
    underline-thickness="60"
    underline-position="-90"
    unicode-range="U+000D-FB02"
  />
<missing-glyph horiz-adv-x="809" 
d="M686 -523h-563v1798h563v-1798zM204 -445h401v1642h-401v-1642zM288 341q77 53 112 87.5t35 57.5q0 25 -18.5 38t-44.5 13q-25 0 -57.5 -17t-54.5 -40l-17 113q21 23 58.5 38.5t78.5 15.5q78 0 128 -39t50 -113q0 -47 -22.5 -84t-66 -72t-130.5 -93zM331 124
q-19 19 -19 46t19 46t46 19t46 -19t19 -46t-19 -46t-46 -19t-46 19z" />
    <glyph glyph-name=".notdef" horiz-adv-x="809" 
d="M686 -523h-563v1798h563v-1798zM204 -445h401v1642h-401v-1642zM288 341q77 53 112 87.5t35 57.5q0 25 -18.5 38t-44.5 13q-25 0 -57.5 -17t-54.5 -40l-17 113q21 23 58.5 38.5t78.5 15.5q78 0 128 -39t50 -113q0 -47 -22.5 -84t-66 -72t-130.5 -93zM331 124
q-19 19 -19 46t19 46t46 19t46 -19t19 -46t-19 -46t-46 -19t-46 19z" />
    <glyph glyph-name=".null" horiz-adv-x="0" 
 />
    <glyph glyph-name="uni000D" unicode="&#xd;" horiz-adv-x="200" 
 />
    <glyph glyph-name="space" unicode=" " horiz-adv-x="279" 
 />
    <glyph glyph-name="exclam" unicode="!" horiz-adv-x="270" 
d="M108 192l-2 658h57l-1 -658h-54zM103.5 1q-12.5 12 -12.5 31t12.5 31t31.5 12t31.5 -12t12.5 -31t-12.5 -31t-31.5 -12t-31.5 12z" />
    <glyph glyph-name="quotedbl" unicode="&#x22;" horiz-adv-x="363" 
d="M74 586l-3 264h57l-3 -264h-51zM237 586l-3 264h57l-3 -264h-51z" />
    <glyph glyph-name="numbersign" unicode="#" horiz-adv-x="880" 
d="M661 547l-75 -243h189v-52h-205l-77 -252h-56l77 252h-254l-78 -252h-56l77 252h-188v52h204l75 243h-189v52h204l77 251h57l-77 -251h254l76 251h57l-77 -251h189v-52h-204zM604 547h-254l-75 -243h254z" />
    <glyph glyph-name="dollar" unicode="$" horiz-adv-x="729" 
d="M596.5 57q-75.5 -64 -217.5 -69v-129h-49v129q-101 5 -173 40.5t-116 79.5l26 47q50 -47 121.5 -79.5t167.5 -32.5q128 0 192.5 50t64.5 134q0 59 -34.5 93.5t-85 51t-136.5 33.5q-97 19 -155.5 39.5t-99.5 66t-41 124.5q0 61 31 111t92 80.5t146 34.5v130h49v-130
q89 -5 156.5 -44t107.5 -82l-25 -46q-48 48 -114 83.5t-151 35.5q-79 0 -131.5 -23.5t-77.5 -62.5t-25 -87q0 -58 33.5 -91t83.5 -49t136 -33q99 -20 158 -40t100.5 -65.5t41.5 -126.5q0 -109 -75.5 -173z" />
    <glyph glyph-name="percent" unicode="%" horiz-adv-x="1016" 
d="M756 832l-456 -845l-40 31l455 845zM147 512.5q-43 25.5 -68.5 68.5t-25.5 94t25.5 94t68.5 68t94 25t94 -25t68 -68t25 -94t-25 -94t-68 -68.5t-94 -25.5t-94 25.5zM311.5 553q32.5 19 51.5 51.5t19 70.5t-19 70.5t-51.5 51.5t-70.5 19t-70.5 -19t-51.5 -51.5t-19 -70.5
t19 -70.5t51.5 -51.5t70.5 -19t70.5 19zM869 337.5q43 -25.5 68.5 -68.5t25.5 -94t-25.5 -94t-68.5 -68t-94 -25t-94 25t-68 68t-25 94t25 94t68 68.5t94 25.5t94 -25.5zM705 297q-32 -19 -51 -51.5t-19 -70.5t19 -70.5t51 -51.5t70 -19t70.5 19t51.5 51.5t19 70.5t-19 70.5
t-51.5 51.5t-70.5 19t-70 -19z" />
    <glyph glyph-name="ampersand" unicode="&#x26;" horiz-adv-x="1036" 
d="M924 0l-242 301v-22q0 -81 -37.5 -147.5t-104.5 -105t-151 -38.5q-85 0 -153 38.5t-106.5 105t-38.5 147.5q0 80 38 146.5t104.5 105.5t147.5 39q48 0 98 -16l-238 296h551v-54h-439l641 -796h-70zM510 71.5q55 31.5 86 86t31 121.5t-31 121.5t-86 86t-122 31.5
q-68 0 -123 -31.5t-86 -86t-31 -121.5t31 -121.5t86 -86t123 -31.5q67 0 122 31.5z" />
    <glyph glyph-name="quotesingle" unicode="'" horiz-adv-x="201" 
d="M75 586l-4 264h59l-5 -264h-50z" />
    <glyph glyph-name="parenleft" unicode="(" horiz-adv-x="407" 
d="M353 937q-105 -89 -174 -222t-69 -282q0 -150 69 -283.5t174 -222.5l-38 -34q-113 96 -187 235.5t-74 304.5t74 303.5t187 234.5z" />
    <glyph glyph-name="parenright" unicode=")" horiz-adv-x="407" 
d="M279 736.5q74 -138.5 74 -303.5t-74 -304.5t-187 -235.5l-38 34q105 89 174 222.5t69 283.5q0 149 -69 282t-174 222l38 34q113 -96 187 -234.5z" />
    <glyph glyph-name="asterisk" unicode="*" horiz-adv-x="435" 
d="M245 850l-4 -156l133 83l27 -47l-141 -75l141 -75l-27 -47l-133 82l4 -155h-55l4 155l-133 -82l-27 47l141 75l-141 75l27 47l133 -83l-4 156h55z" />
    <glyph glyph-name="plus" unicode="+" horiz-adv-x="590" 
d="M321 374h199v-52h-199v-199h-53v199h-199v52h199v199h53v-199z" />
    <glyph glyph-name="comma" unicode="," horiz-adv-x="183" 
d="M-27 -185l113 278l45 -26l-112 -278z" />
    <glyph glyph-name="hyphen" unicode="-" horiz-adv-x="499" 
d="M68 306v52h363v-52h-363z" />
    <glyph glyph-name="period" unicode="." horiz-adv-x="203" 
d="M69 2q-13 13 -13 32t13 32.5t32 13.5t32.5 -13.5t13.5 -32.5t-13.5 -32t-32.5 -13t-32 13z" />
    <glyph glyph-name="slash" unicode="/" horiz-adv-x="852" 
d="M733 875l-571 -1057l-43 32l571 1058z" />
    <glyph glyph-name="zero" unicode="0" horiz-adv-x="694" 
d="M487 815q62 -47 99 -145t37 -245t-37 -245t-99 -145t-140 -47t-140 47t-99 145t-37 245t37 245t99 145t140 47t140 -47zM459 81q49 41 77 127.5t28 216.5t-28 216.5t-77 127.5t-112 41t-112 -41t-77 -127.5t-28 -216.5t28 -216.5t77 -127.5t112 -41t112 41z" />
    <glyph glyph-name="one" unicode="1" horiz-adv-x="309" 
d="M183 0h-57v850h57v-850z" />
    <glyph glyph-name="two" unicode="2" horiz-adv-x="596" 
d="M538 0h-497q167 165 258 280t123.5 190.5t32.5 139.5q0 55 -25 101t-67 72t-92 26q-61 0 -118.5 -34.5t-92.5 -80.5l-8 57q32 43 92.5 77t128.5 34q65 0 120 -30.5t88 -86.5t33 -130q0 -113 -83.5 -245t-271.5 -317h379v-53z" />
    <glyph glyph-name="three" unicode="3" horiz-adv-x="614" 
d="M498.5 379q47.5 -60 47.5 -145q0 -67 -34.5 -123.5t-94 -89.5t-129.5 -33q-88 0 -155.5 50t-90.5 128h58q21 -55 73 -90.5t115 -35.5q54 0 100 26.5t73.5 71.5t27.5 98t-27 97.5t-72 71t-96 26.5q-49 0 -64 -3v55l30 -1l31 1q44 1 81 23t59 59t22 81t-23 82t-61 60.5
t-81 22.5q-58 0 -105 -37.5t-58 -93.5h-57q8 51 40 92.5t79 65.5t101 24q59 0 110 -29t81.5 -78.5t30.5 -108.5q0 -68 -38.5 -117t-91.5 -69q71 -21 118.5 -81z" />
    <glyph glyph-name="four" unicode="4" horiz-adv-x="682" 
d="M642 232h-104v-232h-57v232h-456l513 644v-592h104v-52zM481 284v443l-351 -443h351z" />
    <glyph glyph-name="five" unicode="5" horiz-adv-x="614" 
d="M434.5 478.5q59.5 -34.5 92 -94.5t32.5 -134t-35 -133.5t-97.5 -94t-140.5 -34.5q-114 0 -196 65v62q43 -38 93 -56.5t103 -18.5q63 0 112 28t76 76.5t27 105.5q0 58 -26 106t-73.5 76.5t-110.5 28.5q-56 0 -103 -11t-98 -35v435h416v-54h-359v-310q74 27 152 27
q76 0 135.5 -34.5z" />
    <glyph glyph-name="six" unicode="6" horiz-adv-x="674" 
d="M482 469.5q63 -34.5 99.5 -93.5t36.5 -130q0 -72 -36 -131t-98.5 -93t-139.5 -34q-76 0 -138.5 34t-98.5 93t-36 131q0 56 17.5 104.5t46 92.5t84.5 119q11 15 26.5 35.5t35.5 48.5l156 218l42 -32l-155 -216l-59 -82q-12 -15 -53 -72q58 42 132 42q75 0 138 -34.5z
M453.5 68q49.5 27 78 74t28.5 104q0 56 -28.5 103.5t-77.5 75t-108 27.5q-61 0 -111 -27t-78 -74.5t-28 -104.5q0 -56 27.5 -103t76.5 -74.5t109 -27.5q62 0 111.5 27z" />
    <glyph glyph-name="seven" unicode="7" horiz-adv-x="562" 
d="M537 850l-361 -850h-59l338 796h-430v54h512z" />
    <glyph glyph-name="eight" unicode="8" horiz-adv-x="661" 
d="M558.5 391.5q44.5 -63.5 44.5 -145.5q0 -73 -35 -132t-97 -92.5t-140 -33.5t-140.5 33.5t-97.5 92.5t-35 132q0 82 44.5 145.5t120.5 91.5q-49 25 -78.5 72t-29.5 103t29 102.5t78.5 74t108.5 27.5t108.5 -27.5t78.5 -74.5t29 -103q0 -55 -29.5 -102t-79.5 -73
q76 -27 120.5 -90.5zM411.5 524.5q36.5 20.5 58 55.5t21.5 77t-21.5 77t-58 55.5t-80.5 20.5t-80.5 -20.5t-58 -55.5t-21.5 -77t21.5 -77t58 -55.5t80.5 -20.5t80.5 20.5zM219 423.5q-49 -27.5 -76.5 -74.5t-27.5 -103t27.5 -103.5t76.5 -75t112 -27.5q62 0 111.5 27.5
t76.5 75t27 103.5t-28 103t-77 74.5t-110 27.5q-63 0 -112 -27.5z" />
    <glyph glyph-name="nine" unicode="9" horiz-adv-x="671" 
d="M194 380.5q-63 34.5 -99.5 93.5t-36.5 130q0 72 36 131t98.5 93t139.5 34q76 0 138.5 -34t98.5 -93t36 -131q0 -56 -17.5 -104.5t-46 -92.5t-84.5 -119q-11 -15 -26.5 -35.5t-35.5 -48.5l-156 -218l-42 32l155 216q36 51 55 75q36 47 57 79q-58 -42 -132 -42
q-75 0 -138 34.5zM221.5 782q-49.5 -28 -77.5 -75t-28 -103q0 -57 29 -104t78.5 -74.5t108.5 -27.5q61 0 110.5 27.5t77.5 74.5t28 104t-28.5 104t-77.5 74.5t-110 27.5t-110.5 -28z" />
    <glyph glyph-name="colon" unicode=":" horiz-adv-x="199" 
d="M68.5 433.5q-12.5 12.5 -12.5 31.5t12.5 31t30.5 12q19 0 31.5 -12t12.5 -31t-12.5 -31.5t-31.5 -12.5q-18 0 -30.5 12.5zM68.5 1q-12.5 12 -12.5 31t12.5 31t30.5 12q19 0 31.5 -12t12.5 -31t-12.5 -31t-31.5 -12q-18 0 -30.5 12z" />
    <glyph glyph-name="semicolon" unicode=";" horiz-adv-x="209" 
d="M77.5 433.5q-12.5 12.5 -12.5 31.5t12.5 31t31.5 12t31.5 -12t12.5 -31t-12.5 -31.5t-31.5 -12.5t-31.5 12.5zM-27 -185l113 278l45 -26l-112 -278z" />
    <glyph glyph-name="less" unicode="&#x3c;" horiz-adv-x="672" 
d="M72 348l528 251v-52l-415 -199l415 -199v-53z" />
    <glyph glyph-name="equal" unicode="=" horiz-adv-x="551" 
d="M69 417v52h413v-52h-413zM69 227v52h413v-52h-413z" />
    <glyph glyph-name="greater" unicode="&#x3e;" horiz-adv-x="672" 
d="M72 149l414 199l-414 199v52l528 -251l-528 -252v53z" />
    <glyph glyph-name="question" unicode="?" horiz-adv-x="558" 
d="M179 252q150 108 214.5 194.5t64.5 165.5q0 53 -25 98.5t-68.5 72t-98.5 26.5q-49 0 -104 -28t-92 -70l-9 56q36 41 94 68t113 27q69 0 126 -31t90 -87t33 -127q0 -102 -74 -198.5t-239 -213.5zM273.5 63q12.5 -12 12.5 -31t-12.5 -31t-31.5 -12t-31.5 12t-12.5 31
t12.5 31t31.5 12t31.5 -12z" />
    <glyph glyph-name="at" unicode="@" horiz-adv-x="1345" 
d="M925 202q1 -72 33 -111t95 -39q74 0 112 75t38 190q0 139 -65.5 251.5t-183.5 177t-269 64.5t-275 -67t-196 -188.5t-72 -277.5q0 -155 71.5 -265.5t194.5 -167.5t277 -57h341v-52h-341q-169 0 -305.5 65.5t-215.5 188.5t-79 288q0 166 80 299.5t217.5 209.5t302.5 76
q166 0 297 -73t204.5 -198t73.5 -274q0 -89 -23.5 -161t-70 -114t-113.5 -42t-109.5 37t-58.5 101q-35 -66 -95.5 -102t-129.5 -36q-77 0 -139 36.5t-97.5 99.5t-35.5 141t35.5 141t97.5 99.5t139 36.5q66 0 122 -34t87 -87v99h56v-330zM770 82q49 30 77 81.5t28 113.5
t-28 113.5t-77 81.5t-108 30q-63 0 -112.5 -30.5t-77 -82t-27.5 -112.5t27.5 -112.5t77 -82t112.5 -30.5q59 0 108 30z" />
    <glyph glyph-name="A" unicode="A" horiz-adv-x="955" 
d="M215 259l-135 -259h-63l461 876l460 -876h-63l-135 259h-525zM478 761l-235 -451h469z" />
    <glyph glyph-name="B" unicode="B" horiz-adv-x="705" 
d="M604.5 369.5q44.5 -57.5 44.5 -136.5q0 -65 -32.5 -118t-90 -84t-130.5 -31h-283v850h273q68 0 121 -28.5t82.5 -77t29.5 -108.5q0 -69 -37.5 -119.5t-94.5 -69.5q73 -20 117.5 -77.5zM375 465q54 0 96.5 22t66 59.5t23.5 83.5t-23.5 84.5t-66 60.5t-96.5 22h-204v-332
h204zM494.5 77q45.5 24 71 65t25.5 91t-25.5 91t-71 65t-103.5 24h-220v-360h220q58 0 103.5 24z" />
    <glyph glyph-name="C" unicode="C" horiz-adv-x="856" 
d="M656 777.5q-70 30.5 -150 30.5q-103 0 -190 -51.5t-138 -139.5t-51 -192t51 -192t138 -139.5t190 -51.5q79 0 149.5 30t128.5 84v-68q-54 -45 -125.5 -72.5t-152.5 -27.5q-119 0 -219.5 59t-159.5 159t-59 219t59 219.5t159.5 159t219.5 58.5q82 0 154 -28t127 -75
l-3 -65q-58 53 -128 83.5z" />
    <glyph glyph-name="D" unicode="D" horiz-adv-x="808" 
d="M511.5 794q108.5 -56 168 -153t59.5 -216t-59.5 -216t-168 -153t-250.5 -56h-148v850h148q142 0 250.5 -56zM482.5 102.5q95.5 49.5 147 134.5t51.5 188q0 104 -51.5 189t-147 134t-221.5 49h-90v-744h90q126 0 221.5 49.5z" />
    <glyph glyph-name="E" unicode="E" horiz-adv-x="648" 
d="M171 451h383v-52h-383v-346h402v-53h-460v850h460v-54h-402v-345z" />
    <glyph glyph-name="F" unicode="F" horiz-adv-x="628" 
d="M171 451h383v-52h-383v-399h-58v850h460v-54h-402v-345z" />
    <glyph glyph-name="G" unicode="G" horiz-adv-x="937" 
d="M862 125q-58 -61 -147 -99t-209 -38q-119 0 -219.5 59t-159.5 159t-59 219t59 219t159.5 159t219.5 59q91 0 169 -34t137 -91l-27 -47q-59 55 -129.5 86t-149.5 31q-103 0 -190 -51.5t-138 -139t-51 -191.5t51 -191.5t138 -139t190 -51.5q186 0 299 104v207h-306v53h363
v-282z" />
    <glyph glyph-name="H" unicode="H" horiz-adv-x="835" 
d="M722 0h-57v399h-494v-399h-58v850h58v-399h494v399h57v-850z" />
    <glyph glyph-name="I" unicode="I" horiz-adv-x="284" 
d="M113 0v850h58v-850h-58z" />
    <glyph glyph-name="J" unicode="J" horiz-adv-x="633" 
d="M520 259q0 -78 -35 -139.5t-94.5 -96.5t-130.5 -35q-92 0 -157 52.5t-87 129.5l49 14q22 -63 73 -102.5t122 -39.5q57 0 103.5 28t73 78.5t26.5 114.5v587h57v-591z" />
    <glyph glyph-name="K" unicode="K" horiz-adv-x="691" 
d="M171 850v-410l438 410h78l-454 -424l456 -426h-80l-438 410v-410h-58v850h58z" />
    <glyph glyph-name="L" unicode="L" horiz-adv-x="617" 
d="M113 850h58v-797h433v-53h-491v850z" />
    <glyph glyph-name="M" unicode="M" horiz-adv-x="1110" 
d="M555 82l441 794v-876h-57v674l-384 -700l-384 700v-674h-58v876z" />
    <glyph glyph-name="N" unicode="N" horiz-adv-x="887" 
d="M718 122v728h56v-876l-605 754v-728h-56v876z" />
    <glyph glyph-name="O" unicode="O" horiz-adv-x="1011" 
d="M725 803.5q100 -58.5 159 -159t59 -219.5t-59 -219t-159 -159t-219 -59t-219.5 59t-159.5 159t-59 219t59 219.5t159.5 159t219.5 58.5t219 -58.5zM695.5 94.5q86.5 51.5 137.5 139t51 191.5t-51 191.5t-137.5 139t-189.5 51.5t-190 -51.5t-138 -139t-51 -191.5
t51 -191.5t138 -139t190 -51.5t189.5 51.5z" />
    <glyph glyph-name="P" unicode="P" horiz-adv-x="701" 
d="M528.5 817.5q61.5 -32.5 95 -88.5t33.5 -124t-34 -124.5t-95 -89t-140 -32.5h-217v-359h-58v850h275q79 0 140.5 -32.5zM493.5 436.5q49.5 25.5 77 69.5t27.5 98q0 55 -27.5 99t-77.5 69t-113 25h-209v-386h209q64 0 113.5 25.5z" />
    <glyph glyph-name="Q" unicode="Q" horiz-adv-x="1011" 
d="M852 -46l-100 110q-53 -37 -116 -56.5t-130 -19.5q-119 0 -219.5 59t-159.5 159t-59 219t59 219.5t159.5 159t219.5 58.5t219 -58.5t159 -159t59 -219.5q0 -96 -39.5 -181.5t-109.5 -147.5l130 -142h-72zM756 138q60 54 94 128.5t34 158.5q0 104 -51 191.5t-137.5 138.5
t-189.5 51t-190 -51t-138 -138.5t-51 -191.5t51 -191.5t138 -138.5t190 -51q113 0 208 62l-174 190h70z" />
    <glyph glyph-name="R" unicode="R" horiz-adv-x="695" 
d="M171 366v-366h-58v850h274q78 0 139.5 -32t96 -87t34.5 -123q0 -66 -33.5 -120.5t-93.5 -87t-136 -33.5h-30l292 -367h-70l-291 367zM382 418q62 0 111 25t77 68.5t28 97.5t-28 97t-77 67.5t-111 24.5h-211v-380h211z" />
    <glyph glyph-name="S" unicode="S" horiz-adv-x="729" 
d="M504 772.5q-66 35.5 -151 35.5q-79 0 -131.5 -23.5t-77.5 -62.5t-25 -87q0 -58 33.5 -91t83.5 -49t136 -33q99 -20 158 -40t100.5 -65.5t41.5 -126.5q0 -114 -82.5 -178t-234.5 -64q-110 0 -188 36.5t-126 83.5l26 47q50 -47 121.5 -79.5t167.5 -32.5q128 0 192.5 50
t64.5 134q0 59 -34.5 93.5t-85 51t-136.5 33.5q-97 19 -155.5 39.5t-99.5 66t-41 124.5q0 64 34 115.5t100.5 81.5t159.5 30q97 0 171.5 -40.5t116.5 -86.5l-25 -46q-48 48 -114 83.5z" />
    <glyph glyph-name="T" unicode="T" horiz-adv-x="668" 
d="M363 796v-796h-57v796h-280v54h617v-54h-280z" />
    <glyph glyph-name="U" unicode="U" horiz-adv-x="836" 
d="M722 303q0 -90 -40.5 -162t-110.5 -112.5t-153 -40.5t-153 40.5t-111 112.5t-41 162v547h58v-551q0 -73 33 -132t89.5 -92t124.5 -33t124.5 33t89.5 92t33 132v551h57v-547z" />
    <glyph glyph-name="V" unicode="V" horiz-adv-x="955" 
d="M478 89l397 761h63l-460 -876l-461 876h63z" />
    <glyph glyph-name="W" unicode="W" horiz-adv-x="1085" 
d="M300 137l242 739l243 -739l210 713h59l-265 -876l-247 750l-247 -750l-264 876h59z" />
    <glyph glyph-name="X" unicode="X" horiz-adv-x="703" 
d="M353 391l-277 -391h-65l307 435l-294 415h65l264 -371l263 371h66l-295 -415l308 -435h-66z" />
    <glyph glyph-name="Y" unicode="Y" horiz-adv-x="711" 
d="M327 0v382l-314 468h62l280 -419l281 419h61l-313 -468v-382h-57z" />
    <glyph glyph-name="Z" unicode="Z" horiz-adv-x="754" 
d="M704 54v-54h-599l438 796h-505v54h598l-438 -796h506z" />
    <glyph glyph-name="bracketleft" unicode="[" horiz-adv-x="345" 
d="M142 -74h136v-51h-193v1100h193v-51h-136v-998z" />
    <glyph glyph-name="backslash" unicode="\" horiz-adv-x="767" 
d="M647 8l-43 -32l-485 899l43 33z" />
    <glyph glyph-name="bracketright" unicode="]" horiz-adv-x="345" 
d="M260 -125h-193v51h136v998h-136v51h193v-1100z" />
    <glyph glyph-name="asciicircum" unicode="^" horiz-adv-x="552" 
d="M434 598l-158 200l-159 -200h-60l219 278l219 -278h-61z" />
    <glyph glyph-name="underscore" unicode="_" horiz-adv-x="703" 
d="M29 -193v52h645v-52h-645z" />
    <glyph glyph-name="grave" unicode="`" horiz-adv-x="472" 
d="M371 714l-24 -44l-241 112l24 43z" />
    <glyph glyph-name="a" unicode="a" horiz-adv-x="728" 
d="M627 0h-57v117q-31 -57 -90 -93t-131 -36q-81 0 -146 38t-102 104t-37 148t37 148t102 104t146 38q72 0 131 -36t90 -93v117h57v-556zM465.5 72q51.5 32 81 86.5t29.5 119.5t-29.5 119.5t-81 86.5t-114.5 32q-67 0 -119.5 -32t-81.5 -86.5t-29 -119.5t29 -119.5
t81.5 -86.5t119.5 -32q63 0 114.5 32z" />
    <glyph glyph-name="b" unicode="b" horiz-adv-x="733" 
d="M253 532q59 36 131 36q81 0 146 -38t102 -104t37 -148t-37 -148t-102 -104t-146 -38q-72 0 -131 36t-90 93v-117h-57v850h57v-411q31 57 90 93zM501.5 72q52.5 32 81.5 86.5t29 119.5t-29 119.5t-81.5 86.5t-119.5 32q-63 0 -114.5 -32t-81 -86.5t-29.5 -119.5
t29.5 -119.5t81 -86.5t114.5 -32q67 0 119.5 32z" />
    <glyph glyph-name="c" unicode="c" horiz-adv-x="607" 
d="M454.5 495.5q-47.5 20.5 -102.5 20.5q-67 0 -120 -32t-82 -86.5t-29 -119.5t29 -119.5t82 -86.5t120 -32q55 0 102.5 20.5t83.5 55.5v-63q-78 -65 -186 -65q-83 0 -148.5 38t-102.5 104t-37 148t37 148t102.5 104t148.5 38q108 0 186 -65v-63q-36 35 -83.5 55.5z" />
    <glyph glyph-name="d" unicode="d" horiz-adv-x="728" 
d="M627 0h-57v117q-31 -57 -90 -93t-131 -36q-81 0 -146 38t-102 104t-37 148t37 148t102 104t146 38q72 0 131 -36t90 -93v411h57v-850zM465.5 72q51.5 32 81 86.5t29.5 119.5t-29.5 119.5t-81 86.5t-114.5 32q-67 0 -119.5 -32t-81.5 -86.5t-29 -119.5t29 -119.5
t81.5 -86.5t119.5 -32q63 0 114.5 32z" />
    <glyph glyph-name="e" unicode="e" horiz-adv-x="673" 
d="M540 120l39 -35q-84 -97 -227 -97q-83 0 -148.5 38t-102.5 104t-37 148q0 81 36 147.5t98.5 104.5t138.5 38t139.5 -40.5t99.5 -113t32 -162.5h-485q6 -60 36 -108t80 -76t113 -28q117 0 188 80zM233.5 488q-47.5 -28 -77 -77t-33.5 -109h426q-4 59 -33 108t-76 77.5
t-103 28.5t-103.5 -28z" />
    <glyph glyph-name="f" unicode="f" horiz-adv-x="392" 
d="M237 788q-27 -24 -27 -75v-157h173v-50h-173v-506h-57v506h-127v50h127v158q0 72 42.5 110.5t105.5 38.5q36 0 69.5 -10t54.5 -23l-7 -48q-24 14 -54 22t-61 8q-39 0 -66 -24z" />
    <glyph glyph-name="g" unicode="g" horiz-adv-x="701" 
d="M600 -98q0 -116 -71 -173.5t-181 -57.5q-102 0 -172 51.5t-80 140.5h57q9 -66 63.5 -103t131.5 -37q83 0 139 44.5t56 136.5v233q-31 -53 -86.5 -86t-122.5 -33q-77 0 -138.5 36t-96.5 99t-35 140t35 140t96.5 99t138.5 36q67 0 122.5 -33t86.5 -85v106h57v-654zM445 100
q48 30 76 81t28 112t-27.5 112t-76 81t-107.5 30q-63 0 -112.5 -30t-77 -81t-27.5 -112t27.5 -112t77 -81t112.5 -30q59 0 107 30z" />
    <glyph glyph-name="h" unicode="h" horiz-adv-x="675" 
d="M163 462q25 46 75.5 76t115.5 30q100 0 160 -62.5t60 -172.5v-333h-57v322q0 94 -45.5 144t-131.5 50q-50 0 -90.5 -24t-63.5 -68t-23 -102v-322h-57v850h57v-388z" />
    <glyph glyph-name="i" unicode="i" 
d="M106 556h57v-556h-57v556zM103 726q-13 12 -13 31t13 31.5t32 12.5t31.5 -12.5t12.5 -31.5t-12.5 -31t-31.5 -12t-32 12z" />
    <glyph glyph-name="j" unicode="j" 
d="M106 -323v879h57v-879h-57zM103 726q-13 12 -13 31t13 31.5t32 12.5t31.5 -12.5t12.5 -31.5t-12.5 -31t-31.5 -12t-32 12z" />
    <glyph glyph-name="k" unicode="k" horiz-adv-x="551" 
d="M164 272v-272h-58v850h58v-548l289 254h77l-304 -268l316 -288h-78z" />
    <glyph glyph-name="l" unicode="l" 
d="M106 850h57v-850h-57v850z" />
    <glyph glyph-name="m" unicode="m" horiz-adv-x="997" 
d="M163 474q22 45 65.5 69.5t101.5 24.5q65 0 109 -31.5t65 -88.5q23 58 72.5 89t119.5 31q57 0 102.5 -27t71.5 -78.5t26 -121.5v-341h-57v331q0 87 -42 136t-115 49q-71 0 -111.5 -49t-40.5 -136v-331h-57v331q0 87 -42 136t-114 49t-113 -49t-41 -136v-331h-57v556h57
v-82z" />
    <glyph glyph-name="n" unicode="n" horiz-adv-x="675" 
d="M163 462q25 46 75.5 76t115.5 30q100 0 160 -62.5t60 -172.5v-333h-57v322q0 94 -45.5 144t-131.5 50q-50 0 -90.5 -24t-63.5 -68t-23 -102v-322h-57v556h57v-94z" />
    <glyph glyph-name="o" unicode="o" horiz-adv-x="704" 
d="M499.5 530q65.5 -38 102.5 -104t37 -148t-37 -148t-102.5 -104t-147.5 -38q-83 0 -148.5 38t-102.5 104t-37 148t37 148t102.5 104t148.5 38q82 0 147.5 -38zM471.5 72q52.5 32 81.5 86.5t29 119.5t-29 119.5t-81.5 86.5t-119.5 32t-120 -32t-82 -86.5t-29 -119.5
t29 -119.5t82 -86.5t120 -32t119.5 32z" />
    <glyph glyph-name="p" unicode="p" horiz-adv-x="733" 
d="M253 532q59 36 131 36q81 0 146 -38t102 -104t37 -148t-37 -148t-102 -104t-146 -38q-72 0 -131 36t-90 93v-440h-57v879h57v-117q31 57 90 93zM501.5 72q52.5 32 81.5 86.5t29 119.5t-29 119.5t-81.5 86.5t-119.5 32q-63 0 -114.5 -32t-81 -86.5t-29.5 -119.5
t29.5 -119.5t81 -86.5t114.5 -32q67 0 119.5 32z" />
    <glyph glyph-name="q" unicode="q" horiz-adv-x="728" 
d="M627 -323h-57v440q-31 -57 -90 -93t-131 -36q-81 0 -146 38t-102 104t-37 148t37 148t102 104t146 38q72 0 131 -36t90 -93v117h57v-879zM465.5 72q51.5 32 81 86.5t29.5 119.5t-29.5 119.5t-81 86.5t-114.5 32q-67 0 -119.5 -32t-81.5 -86.5t-29 -119.5t29 -119.5
t81.5 -86.5t119.5 -32q63 0 114.5 32z" />
    <glyph glyph-name="r" unicode="r" horiz-adv-x="417" 
d="M163 556v-95q20 43 65.5 73.5t108.5 30.5q31 0 58 -9l-7 -48q-24 6 -50 6q-77 0 -126 -53t-49 -146v-315h-57v556h57z" />
    <glyph glyph-name="s" unicode="s" horiz-adv-x="551" 
d="M380.5 492.5q-51.5 24.5 -109.5 24.5q-73 0 -115.5 -29.5t-42.5 -73.5q0 -35 22.5 -54.5t55.5 -28.5t92 -19q71 -12 114.5 -25.5t74 -45.5t30.5 -89q0 -77 -62.5 -120.5t-168.5 -43.5q-81 0 -141 26t-91 57l25 45q31 -30 84 -53.5t122 -23.5q79 0 126.5 31t47.5 80
q0 37 -23 58t-58 31t-93 20q-69 11 -111.5 24.5t-72 44.5t-29.5 86q0 44 26 79t74.5 55t113.5 20q70 0 127 -27t87 -57l-24 -44q-29 28 -80.5 52.5z" />
    <glyph glyph-name="t" unicode="t" horiz-adv-x="390" 
d="M387 506h-173v-506h-57v506h-127v50h127v281h57v-281h173v-50z" />
    <glyph glyph-name="u" unicode="u" horiz-adv-x="663" 
d="M164 211q0 -47 22.5 -86.5t61.5 -62t86 -22.5q46 0 85 22.5t62 62t23 86.5v345h57v-342q0 -63 -30.5 -115t-82.5 -81.5t-114 -29.5t-114 29.5t-83 81.5t-31 115v342h58v-345z" />
    <glyph glyph-name="v" unicode="v" horiz-adv-x="636" 
d="M16 556h61l242 -474l243 474h59l-303 -584z" />
    <glyph glyph-name="w" unicode="w" horiz-adv-x="1001" 
d="M501 420l-207 -448l-278 584h60l220 -473l205 447l205 -448l219 474h61l-279 -584z" />
    <glyph glyph-name="x" unicode="x" horiz-adv-x="577" 
d="M288 244l-212 -244h-65l244 283l-235 273h68l201 -233l203 233h65l-234 -272l244 -284h-68z" />
    <glyph glyph-name="y" unicode="y" horiz-adv-x="636" 
d="M319 82l243 474h59l-455 -879h-58l182 350l-274 529h61z" />
    <glyph glyph-name="z" unicode="z" horiz-adv-x="575" 
d="M28 0l404 506h-374v50h483l-405 -506h398v-50h-506z" />
    <glyph glyph-name="braceleft" unicode="{" horiz-adv-x="473" 
d="M193 425q79 -16 79 -127v-321q0 -74 31 -106t105 -32v-49q-100 0 -147 43.5t-47 134.5v323q0 57 -23.5 83t-88.5 26h-57v51h57q65 0 88.5 25.5t23.5 82.5v323q0 91 46.5 134.5t147.5 43.5v-49q-74 0 -105 -32t-31 -106v-320q0 -111 -79 -128z" />
    <glyph glyph-name="bar" unicode="|" horiz-adv-x="411" 
d="M234 -146h-57v1142h57v-1142z" />
    <glyph glyph-name="braceright" unicode="}" horiz-adv-x="473" 
d="M201 873q0 74 -31 106t-105 32v49q101 0 147 -43.5t46 -134.5v-323q0 -57 23.5 -82.5t89.5 -25.5h57v-51h-57q-66 0 -89.5 -25.5t-23.5 -83.5v-323q0 -91 -47 -134.5t-146 -43.5v49q74 0 105 32t31 106v321q0 111 79 127q-79 17 -79 128v320z" />
    <glyph glyph-name="asciitilde" unicode="~" horiz-adv-x="595" 
d="M125 388q29 16 69 16q27 0 51 -8t58 -24q29 -14 51 -21.5t46 -7.5q37 0 67 16t58 41v-53q-25 -22 -55 -38.5t-70 -16.5q-27 0 -51 8t-58 24q-29 14 -51 21.5t-46 7.5q-37 0 -67 -16t-58 -41v53q27 23 56 39z" />
    <glyph glyph-name="uni00A0" unicode="&#xa0;" horiz-adv-x="200" 
 />
    <glyph glyph-name="exclamdown" unicode="&#xa1;" horiz-adv-x="270" 
d="M166.5 496q12.5 -12 12.5 -31t-12.5 -31.5t-31.5 -12.5t-31.5 12.5t-12.5 31.5t12.5 31t31.5 12t31.5 -12zM163 -356h-57l2 658h54z" />
    <glyph glyph-name="cent" unicode="&#xa2;" horiz-adv-x="607" 
d="M454.5 495.5q-47.5 20.5 -102.5 20.5q-67 0 -120 -32t-82 -86.5t-29 -119.5t29 -119.5t82 -86.5t120 -32q55 0 102.5 20.5t83.5 55.5v-63q-67 -58 -163 -64v-118h-45v118q-77 5 -137.5 44t-94.5 103t-34 142t34 142t94.5 103t137.5 44v118h45v-118q96 -6 163 -64v-63
q-36 35 -83.5 55.5z" />
    <glyph glyph-name="sterling" unicode="&#xa3;" horiz-adv-x="680" 
d="M634 0h-487v291h-96v49h96v259q0 77 34 137t93 93t132 33q57 0 112.5 -24.5t91.5 -64.5l-8 -55q-39 42 -91.5 66.5t-102.5 24.5q-55 0 -101.5 -26t-74 -74.5t-27.5 -111.5v-257h338l-7 -49h-331v-238h429v-53z" />
    <glyph glyph-name="currency" unicode="&#xa4;" horiz-adv-x="628" 
d="M498 232l80 -81l-37 -30l-74 74q-30 -29 -69.5 -45t-83.5 -16t-83.5 16t-69.5 46l-74 -75l-37 30l80 81q-38 55 -38 125q0 69 38 124l-80 81l37 30l74 -74q30 29 69.5 45t83.5 16t83.5 -16t69.5 -45l74 74l37 -30l-80 -81q39 -55 39 -124q0 -70 -39 -125zM400.5 208
q39.5 23 62.5 62.5t23 86.5q0 46 -23 85.5t-62.5 62.5t-86.5 23t-86 -23t-62 -62.5t-23 -85.5q0 -47 23 -86.5t62 -62.5t86 -23t86.5 23z" />
    <glyph glyph-name="yen" unicode="&#xa5;" horiz-adv-x="786" 
d="M521 490h150v-46h-182l-67 -96h249v-46h-249v-302h-57v302h-249v46h249l-68 96h-181v46h149l-252 360h63l317 -452l318 452h62z" />
    <glyph glyph-name="brokenbar" unicode="&#xa6;" horiz-adv-x="411" 
d="M177 534v462h57v-462h-57zM177 -146v463h57v-463h-57z" />
    <glyph glyph-name="section" unicode="&#xa7;" horiz-adv-x="795" 
d="M240 -179q63 -29 148 -29q111 0 166 42t55 114q0 49 -31.5 80.5t-78.5 49t-128 39.5q-93 25 -150 48t-97 67t-40 116q0 100 123 171q-79 54 -79 143q0 57 30.5 102.5t89 71.5t139.5 26q87 0 153.5 -36.5t101.5 -75.5l-25 -45q-40 41 -98 72.5t-133 31.5
q-100 0 -150.5 -41.5t-50.5 -104.5q0 -48 31 -78t77.5 -47.5t126.5 -38.5q94 -24 152 -47t98.5 -68t40.5 -118q0 -54 -30.5 -98t-85.5 -76q72 -54 72 -142q0 -99 -73 -155.5t-207 -56.5q-98 0 -167 32.5t-110 73.5l25 46q42 -40 105 -69zM141 348q0 -51 32 -82.5t79.5 -49.5
t129.5 -40q60 -16 96.5 -27t68.5 -27q106 57 106 141q0 53 -33 86t-81.5 51.5t-130.5 40.5q-54 14 -88.5 24.5t-65.5 24.5q-113 -59 -113 -142z" />
    <glyph glyph-name="dieresis" unicode="&#xa8;" horiz-adv-x="508" 
d="M118.5 727q-12.5 12 -12.5 30t12 29.5t30 11.5t30.5 -11.5t12.5 -29.5t-12.5 -30t-30.5 -12q-17 0 -29.5 12zM335 727q-12 12 -12 30t12 29.5t30 11.5t30 -11.5t12 -29.5t-12 -30t-30 -12t-30 12z" />
    <glyph glyph-name="copyright" unicode="&#xa9;" horiz-adv-x="760" 
d="M244 356.5q-62 36.5 -98.5 98.5t-36.5 136t36.5 136t98.5 98.5t136 36.5q73 0 135.5 -36.5t99 -98.5t36.5 -136t-36.5 -136t-99 -98.5t-135.5 -36.5q-74 0 -136 36.5zM495 392q53 31 83.5 84t30.5 115q0 63 -30.5 115.5t-83.5 83.5t-115 31t-115 -31t-83.5 -83.5
t-30.5 -115.5q0 -62 30.5 -115t83.5 -84t115 -31t115 31zM380 704q-45 0 -78.5 -33.5t-33.5 -79.5t33.5 -79.5t78.5 -33.5q54 0 98 44v-43q-18 -16 -44 -26.5t-54 -10.5q-40 0 -74.5 20t-54.5 54.5t-20 74.5t20 74.5t54.5 54.5t74.5 20q29 0 54.5 -10.5t44.5 -27.5l-2 -41
q-43 43 -97 43z" />
    <glyph glyph-name="ordfeminine" unicode="&#xaa;" horiz-adv-x="727" 
d="M569 396h-51v93q-26 -46 -74 -75t-106 -29q-67 0 -120.5 31.5t-84 86.5t-30.5 122t30.5 122t84 86.5t120.5 31.5q58 0 106 -29t74 -75v93h51v-458zM433.5 458q41.5 26 65.5 70t24 97t-24 97t-65.5 70t-92.5 26q-55 0 -97 -26t-65.5 -70t-23.5 -97t23.5 -97t65.5 -70
t97 -26q51 0 92.5 26zM631 0h-538v53h538v-53z" />
    <glyph glyph-name="guillemotleft" unicode="&#xab;" horiz-adv-x="628" 
d="M139 300l196 -190l-23 -42l-240 232l240 231l23 -42zM360 300l196 -190l-23 -42l-239 232l239 231l23 -42z" />
    <glyph glyph-name="logicalnot" unicode="&#xac;" horiz-adv-x="508" 
d="M439 168h-53v154h-317v52h370v-206z" />
    <glyph glyph-name="registered" unicode="&#xae;" horiz-adv-x="760" 
d="M516 825.5q62 -36.5 98.5 -98.5t36.5 -136q0 -73 -36.5 -135.5t-98.5 -99t-136 -36.5t-136 36.5t-98.5 99t-36.5 135.5q0 74 36.5 136t98.5 98.5t136 36.5t136 -36.5zM495 393q53 31 83.5 83.5t30.5 114.5q0 63 -30.5 115.5t-83.5 83.5t-115 31t-115 -31t-83.5 -83.5
t-30.5 -115.5q0 -62 30.5 -114.5t83.5 -83.5t115 -31t115 31zM324 564v-114h-36v282h99q40 0 66.5 -24t26.5 -60q0 -33 -23 -56t-59 -26l92 -116h-45l-90 114h-31zM384 597q25 0 41.5 14.5t16.5 36.5q0 21 -16.5 35.5t-41.5 14.5h-60v-101h60z" />
    <glyph glyph-name="macron" unicode="&#xaf;" horiz-adv-x="497" 
d="M106 732v50h290v-50h-290z" />
    <glyph glyph-name="degree" unicode="&#xb0;" horiz-adv-x="549" 
d="M151 555q-38 22 -60 60t-22 83t22 82.5t60 59.5t83 22q44 0 82 -22t60 -59.5t22 -82.5t-22 -83t-60 -60t-82 -22q-45 0 -83 22zM319.5 611.5q35.5 35.5 35.5 86.5q0 50 -35.5 86t-85.5 36q-51 0 -86.5 -36t-35.5 -86q0 -51 35.5 -86.5t86.5 -35.5q50 0 85.5 35.5z" />
    <glyph glyph-name="plusminus" unicode="&#xb1;" horiz-adv-x="590" 
d="M321 390h199v-52h-199v-199h-53v199h-199v52h199v200h53v-200zM520 52v-52h-451v52h451z" />
    <glyph glyph-name="uni00B2" unicode="&#xb2;" horiz-adv-x="385" 
d="M318 433h-251q112 120 150 185.5t38 109.5q-1 37 -25 63t-61 26q-23 0 -49.5 -14t-45.5 -34l-6 41q18 20 47.5 33.5t56.5 13.5q54 0 90.5 -34.5t36.5 -90.5q0 -55 -37 -116.5t-116 -143.5h172v-39z" />
    <glyph glyph-name="uni00B3" unicode="&#xb3;" horiz-adv-x="378" 
d="M296 617.5q21 -28.5 21 -68.5q0 -33 -17.5 -61.5t-48 -45t-65.5 -16.5q-46 0 -80.5 26.5t-44.5 66.5h43q9 -24 31.5 -39.5t50.5 -15.5q36 0 62 25.5t26 60.5q0 36 -25.5 61t-60.5 25q-24 0 -33 -2v40l17 -1l17 1q29 2 49.5 22.5t20.5 49.5q0 30 -22 51.5t-51 21.5
q-26 0 -46.5 -16t-24.5 -41h-42q6 40 37.5 67.5t75.5 27.5q47 0 81 -32t34 -78q0 -32 -17 -55t-42 -34q33 -12 54 -40.5z" />
    <glyph glyph-name="acute" unicode="&#xb4;" horiz-adv-x="472" 
d="M130 670l-24 44l241 111l24 -43z" />
    <glyph glyph-name="paragraph" unicode="&#xb6;" horiz-adv-x="838" 
d="M687 -323h-54v1121h-155v-1121h-54v624q-98 0 -171 35t-112.5 97t-39.5 143q0 79 39.5 141t112.5 97.5t171 35.5h263v-1173z" />
    <glyph glyph-name="periodcentered" unicode="&#xb7;" horiz-adv-x="199" 
d="M68.5 308q-12.5 12 -12.5 31t12.5 31.5t30.5 12.5q19 0 31.5 -12.5t12.5 -31.5t-12.5 -31t-31.5 -12q-18 0 -30.5 12z" />
    <glyph glyph-name="cedilla" unicode="&#xb8;" horiz-adv-x="337" 
d="M166 -211h-60l70 131h60z" />
    <glyph glyph-name="uni00B9" unicode="&#xb9;" horiz-adv-x="272" 
d="M158 433h-44v417h44v-417z" />
    <glyph glyph-name="ordmasculine" unicode="&#xba;" horiz-adv-x="727" 
d="M484.5 833.5q54.5 -31.5 85 -86.5t30.5 -122t-30.5 -122t-85 -86.5t-122.5 -31.5t-122.5 31.5t-85 86.5t-30.5 122t30.5 122t85 86.5t122.5 31.5t122.5 -31.5zM459.5 458q42.5 26 66 70t23.5 97t-23.5 97t-66 70t-97.5 26q-54 0 -96.5 -26t-66 -70t-23.5 -97t23.5 -97
t66 -70t96.5 -26q55 0 97.5 26zM631 0h-538v53h538v-53z" />
    <glyph glyph-name="guillemotright" unicode="&#xbb;" horiz-adv-x="628" 
d="M95 531l240 -231l-240 -232l-23 42l196 190l-196 189zM317 531l239 -231l-239 -232l-23 42l196 190l-196 189z" />
    <glyph glyph-name="questiondown" unicode="&#xbf;" horiz-adv-x="538" 
d="M284.5 433.5q-12.5 12.5 -12.5 31.5t12.5 31t31.5 12t31.5 -12t12.5 -31t-12.5 -31.5t-31.5 -12.5t-31.5 12.5zM379 244q-150 -107 -214.5 -193.5t-64.5 -165.5q0 -53 25 -98.5t68.5 -72.5t98.5 -27q49 0 104 28t92 70l9 -56q-37 -40 -94.5 -67.5t-112.5 -27.5
q-69 0 -126 31t-90 87t-33 127q0 102 74 198.5t239 213.5z" />
    <glyph glyph-name="Agrave" unicode="&#xc0;" horiz-adv-x="955" 
d="M215 259l-135 -259h-63l461 876l460 -876h-63l-135 259h-525zM478 761l-235 -451h469zM381 1088l241 -112l-24 -43l-241 112z" />
    <glyph glyph-name="Aacute" unicode="&#xc1;" horiz-adv-x="955" 
d="M215 259l-135 -259h-63l461 876l460 -876h-63l-135 259h-525zM478 761l-235 -451h469zM357 933l-24 43l242 112l23 -43z" />
    <glyph glyph-name="Acircumflex" unicode="&#xc2;" horiz-adv-x="955" 
d="M215 259l-135 -259h-63l461 876l460 -876h-63l-135 259h-525zM478 761l-235 -451h469zM478 1058l-106 -117l-33 31l139 156l138 -156l-33 -31z" />
    <glyph glyph-name="Atilde" unicode="&#xc3;" horiz-adv-x="955" 
d="M215 259l-135 -259h-63l461 876l460 -876h-63l-135 259h-525zM478 761l-235 -451h469zM643 1041q-19 -39 -42.5 -58t-55.5 -19q-23 0 -39.5 8t-39.5 23q-20 13 -30.5 18.5t-24.5 5.5q-20 0 -35 -13.5t-30 -40.5l-34 28q37 77 98 77q23 0 39.5 -8t39.5 -23
q20 -13 30.5 -18.5t24.5 -5.5q20 0 35 13.5t30 40.5z" />
    <glyph glyph-name="Adieresis" unicode="&#xc4;" horiz-adv-x="955" 
d="M215 259l-135 -259h-63l461 876l460 -876h-63l-135 259h-525zM478 761l-235 -451h469zM339 991.5q-12 11.5 -12 29.5t12.5 30t29.5 12q18 0 30.5 -12t12.5 -30t-12.5 -29.5t-30.5 -11.5t-30 11.5zM556 991.5q-12 11.5 -12 29.5t12 30t30 12t30 -12t12 -30t-12 -29.5
t-30 -11.5t-30 11.5z" />
    <glyph glyph-name="Aring" unicode="&#xc5;" horiz-adv-x="955" 
d="M215 259l-135 -259h-63l461 876l460 -876h-63l-135 259h-525zM478 761l-235 -451h469zM387.5 965q-37.5 37 -37.5 89q0 34 17 63.5t46.5 46.5t64.5 17q34 0 63.5 -17t46.5 -46.5t17 -63.5q0 -52 -37 -89t-90 -37t-90.5 37zM536.5 994.5q24.5 24.5 24.5 59.5t-24.5 60
t-58.5 25t-58.5 -25t-24.5 -60t24.5 -59.5t58.5 -24.5t58.5 24.5z" />
    <glyph glyph-name="AE" unicode="&#xc6;" horiz-adv-x="1115" 
d="M219 259l-139 -259h-63l458 850h565v-54h-504l110 -345h375v-52h-358l110 -346h267v-53h-308l-83 259h-430zM489 761l-242 -451h385z" />
    <glyph glyph-name="Ccedilla" unicode="&#xc7;" horiz-adv-x="856" 
d="M656 777.5q-70 30.5 -150 30.5q-103 0 -190 -51.5t-138 -139.5t-51 -192t51 -192t138 -139.5t190 -51.5q79 0 149.5 30t128.5 84v-68q-54 -45 -125.5 -72.5t-152.5 -27.5q-119 0 -219.5 59t-159.5 159t-59 219t59 219.5t159.5 159t219.5 58.5q82 0 154 -28t127 -75
l-3 -65q-58 53 -128 83.5zM466 -211h-60l70 131h60z" />
    <glyph glyph-name="Egrave" unicode="&#xc8;" horiz-adv-x="648" 
d="M171 451h383v-52h-383v-346h402v-53h-460v850h460v-54h-402v-345zM246 1088l241 -112l-24 -43l-241 112z" />
    <glyph glyph-name="Eacute" unicode="&#xc9;" horiz-adv-x="648" 
d="M171 451h383v-52h-383v-346h402v-53h-460v850h460v-54h-402v-345zM223 933l-24 43l242 112l23 -43z" />
    <glyph glyph-name="Ecircumflex" unicode="&#xca;" horiz-adv-x="648" 
d="M171 451h383v-52h-383v-346h402v-53h-460v850h460v-54h-402v-345zM344 1058l-106 -117l-33 31l139 156l138 -156l-33 -31z" />
    <glyph glyph-name="Edieresis" unicode="&#xcb;" horiz-adv-x="648" 
d="M171 451h383v-52h-383v-346h402v-53h-460v850h460v-54h-402v-345zM204 991.5q-12 11.5 -12 29.5t12.5 30t29.5 12q18 0 30.5 -12t12.5 -30t-12.5 -29.5t-30.5 -11.5t-30 11.5zM421 991.5q-12 11.5 -12 29.5t12 30t30 12t30 -12t12 -30t-12 -29.5t-30 -11.5t-30 11.5z" />
    <glyph glyph-name="Igrave" unicode="&#xcc;" horiz-adv-x="284" 
d="M113 0v850h58v-850h-58zM45 1088l241 -112l-24 -43l-241 112z" />
    <glyph glyph-name="Iacute" unicode="&#xcd;" horiz-adv-x="284" 
d="M113 0v850h58v-850h-58zM22 933l-24 43l242 112l23 -43z" />
    <glyph glyph-name="Icircumflex" unicode="&#xce;" horiz-adv-x="284" 
d="M113 0v850h58v-850h-58zM142 1058l-106 -117l-33 31l139 156l138 -156l-33 -31z" />
    <glyph glyph-name="Idieresis" unicode="&#xcf;" horiz-adv-x="284" 
d="M113 0v850h58v-850h-58zM3 991.5q-12 11.5 -12 29.5t12.5 30t29.5 12q18 0 30.5 -12t12.5 -30t-12.5 -29.5t-30.5 -11.5t-30 11.5zM220 991.5q-12 11.5 -12 29.5t12 30t30 12t30 -12t12 -30t-12 -29.5t-30 -11.5t-30 11.5z" />
    <glyph glyph-name="Eth" unicode="&#xd0;" horiz-adv-x="811" 
d="M514.5 794q108.5 -56 168 -153t59.5 -216t-59.5 -216t-168 -153t-250.5 -56h-147v399h-102v52h102v399h147q142 0 250.5 -56zM485.5 102.5q95.5 49.5 147 134.5t51.5 188q0 104 -51.5 189t-147 134t-221.5 49h-90v-346h223v-52h-223v-346h90q126 0 221.5 49.5z" />
    <glyph glyph-name="Ntilde" unicode="&#xd1;" horiz-adv-x="887" 
d="M718 122v728h56v-876l-605 754v-728h-56v876zM605 1041q-19 -39 -42.5 -58t-55.5 -19q-23 0 -39.5 8t-39.5 23q-20 13 -30.5 18.5t-24.5 5.5q-20 0 -35 -13.5t-30 -40.5l-34 28q37 77 98 77q23 0 39.5 -8t39.5 -23q20 -13 30.5 -18.5t24.5 -5.5q20 0 35 13.5t30 40.5z
" />
    <glyph glyph-name="Ograve" unicode="&#xd2;" horiz-adv-x="1011" 
d="M725 803.5q100 -58.5 159 -159t59 -219.5t-59 -219t-159 -159t-219 -59t-219.5 59t-159.5 159t-59 219t59 219.5t159.5 159t219.5 58.5t219 -58.5zM695.5 94.5q86.5 51.5 137.5 139t51 191.5t-51 191.5t-137.5 139t-189.5 51.5t-190 -51.5t-138 -139t-51 -191.5
t51 -191.5t138 -139t190 -51.5t189.5 51.5zM409 1088l241 -112l-24 -43l-241 112z" />
    <glyph glyph-name="Oacute" unicode="&#xd3;" horiz-adv-x="1011" 
d="M725 803.5q100 -58.5 159 -159t59 -219.5t-59 -219t-159 -159t-219 -59t-219.5 59t-159.5 159t-59 219t59 219.5t159.5 159t219.5 58.5t219 -58.5zM695.5 94.5q86.5 51.5 137.5 139t51 191.5t-51 191.5t-137.5 139t-189.5 51.5t-190 -51.5t-138 -139t-51 -191.5
t51 -191.5t138 -139t190 -51.5t189.5 51.5zM385 933l-24 43l242 112l23 -43z" />
    <glyph glyph-name="Ocircumflex" unicode="&#xd4;" horiz-adv-x="1011" 
d="M725 803.5q100 -58.5 159 -159t59 -219.5t-59 -219t-159 -159t-219 -59t-219.5 59t-159.5 159t-59 219t59 219.5t159.5 159t219.5 58.5t219 -58.5zM695.5 94.5q86.5 51.5 137.5 139t51 191.5t-51 191.5t-137.5 139t-189.5 51.5t-190 -51.5t-138 -139t-51 -191.5
t51 -191.5t138 -139t190 -51.5t189.5 51.5zM506 1058l-106 -117l-33 31l139 156l138 -156l-33 -31z" />
    <glyph glyph-name="Otilde" unicode="&#xd5;" horiz-adv-x="1011" 
d="M725 803.5q100 -58.5 159 -159t59 -219.5t-59 -219t-159 -159t-219 -59t-219.5 59t-159.5 159t-59 219t59 219.5t159.5 159t219.5 58.5t219 -58.5zM695.5 94.5q86.5 51.5 137.5 139t51 191.5t-51 191.5t-137.5 139t-189.5 51.5t-190 -51.5t-138 -139t-51 -191.5
t51 -191.5t138 -139t190 -51.5t189.5 51.5zM671 1041q-19 -39 -42.5 -58t-55.5 -19q-23 0 -39.5 8t-39.5 23q-20 13 -30.5 18.5t-24.5 5.5q-20 0 -35 -13.5t-30 -40.5l-34 28q37 77 98 77q23 0 39.5 -8t39.5 -23q20 -13 30.5 -18.5t24.5 -5.5q20 0 35 13.5t30 40.5z" />
    <glyph glyph-name="Odieresis" unicode="&#xd6;" horiz-adv-x="1011" 
d="M725 803.5q100 -58.5 159 -159t59 -219.5t-59 -219t-159 -159t-219 -59t-219.5 59t-159.5 159t-59 219t59 219.5t159.5 159t219.5 58.5t219 -58.5zM695.5 94.5q86.5 51.5 137.5 139t51 191.5t-51 191.5t-137.5 139t-189.5 51.5t-190 -51.5t-138 -139t-51 -191.5
t51 -191.5t138 -139t190 -51.5t189.5 51.5zM367 991.5q-12 11.5 -12 29.5t12.5 30t29.5 12q18 0 30.5 -12t12.5 -30t-12.5 -29.5t-30.5 -11.5t-30 11.5zM584 991.5q-12 11.5 -12 29.5t12 30t30 12t30 -12t12 -30t-12 -29.5t-30 -11.5t-30 11.5z" />
    <glyph glyph-name="multiply" unicode="&#xd7;" horiz-adv-x="640" 
d="M553 522l-198 -197l200 -199l-36 -36l-199 200l-200 -200l-35 36l199 199l-197 197l35 36l198 -198l198 198z" />
    <glyph glyph-name="Oslash" unicode="&#xd8;" horiz-adv-x="1011" 
d="M887.5 638q55.5 -98 55.5 -213q0 -119 -59 -219t-159 -159t-219 -59q-100 0 -187 42l-88 -159l-48 21l89 163q-94 60 -149 157.5t-55 212.5q0 119 59 219.5t159.5 159t219.5 58.5q98 0 187 -42l87 159l49 -21l-90 -163q93 -59 148.5 -157zM174 240.5q47 -84.5 127 -136.5
l366 667q-77 36 -161 36q-103 0 -190 -51.5t-138 -139t-51 -191.5q0 -100 47 -184.5zM695.5 94.5q86.5 51.5 137.5 139t51 191.5q0 99 -46.5 184t-126.5 137l-367 -667q77 -36 162 -36q103 0 189.5 51.5z" />
    <glyph glyph-name="Ugrave" unicode="&#xd9;" horiz-adv-x="836" 
d="M722 303q0 -90 -40.5 -162t-110.5 -112.5t-153 -40.5t-153 40.5t-111 112.5t-41 162v547h58v-551q0 -73 33 -132t89.5 -92t124.5 -33t124.5 33t89.5 92t33 132v551h57v-547zM325 1088l241 -112l-24 -43l-241 112z" />
    <glyph glyph-name="Uacute" unicode="&#xda;" horiz-adv-x="836" 
d="M722 303q0 -90 -40.5 -162t-110.5 -112.5t-153 -40.5t-153 40.5t-111 112.5t-41 162v547h58v-551q0 -73 33 -132t89.5 -92t124.5 -33t124.5 33t89.5 92t33 132v551h57v-547zM302 933l-24 43l242 112l23 -43z" />
    <glyph glyph-name="Ucircumflex" unicode="&#xdb;" horiz-adv-x="836" 
d="M722 303q0 -90 -40.5 -162t-110.5 -112.5t-153 -40.5t-153 40.5t-111 112.5t-41 162v547h58v-551q0 -73 33 -132t89.5 -92t124.5 -33t124.5 33t89.5 92t33 132v551h57v-547zM422 1058l-106 -117l-33 31l139 156l138 -156l-33 -31z" />
    <glyph glyph-name="Udieresis" unicode="&#xdc;" horiz-adv-x="836" 
d="M722 303q0 -90 -40.5 -162t-110.5 -112.5t-153 -40.5t-153 40.5t-111 112.5t-41 162v547h58v-551q0 -73 33 -132t89.5 -92t124.5 -33t124.5 33t89.5 92t33 132v551h57v-547zM283 991.5q-12 11.5 -12 29.5t12.5 30t29.5 12q18 0 30.5 -12t12.5 -30t-12.5 -29.5
t-30.5 -11.5t-30 11.5zM500 991.5q-12 11.5 -12 29.5t12 30t30 12t30 -12t12 -30t-12 -29.5t-30 -11.5t-30 11.5z" />
    <glyph glyph-name="Yacute" unicode="&#xdd;" horiz-adv-x="711" 
d="M327 0v382l-314 468h62l280 -419l281 419h61l-313 -468v-382h-57zM235 933l-24 43l242 112l23 -43z" />
    <glyph glyph-name="Thorn" unicode="&#xde;" horiz-adv-x="701" 
d="M528.5 640.5q61.5 -32.5 95 -88.5t33.5 -124t-34 -124.5t-95 -89t-140 -32.5h-217v-182h-58v850h58v-177h217q79 0 140.5 -32.5zM493.5 259.5q49.5 25.5 77 69.5t27.5 98q0 55 -27.5 99t-77.5 69t-113 25h-209v-386h209q64 0 113.5 25.5z" />
    <glyph glyph-name="germandbls" unicode="&#xdf;" horiz-adv-x="671" 
d="M560 380.5q47 -60.5 47 -145.5q0 -67 -35 -124t-94.5 -90t-130.5 -33q-57 0 -108 22v57q48 -27 108 -27q54 0 100.5 26.5t74 72t27.5 98.5t-26 98t-70 71.5t-95 26.5q-38 0 -67 -3v55q13 -1 38 -1q17 0 26 1q44 1 80.5 23t57.5 58t21 80q0 45 -23.5 83t-63.5 60t-87 22
q-48 0 -89 -22t-64.5 -60.5t-23.5 -85.5v-642h-57v642q0 60 32 110t85.5 79.5t116.5 29.5t116 -28.5t83.5 -78t30.5 -108.5q0 -68 -38 -116.5t-92 -68.5q73 -21 120 -81.5z" />
    <glyph glyph-name="agrave" unicode="&#xe0;" horiz-adv-x="728" 
d="M627 0h-57v117q-31 -57 -90 -93t-131 -36q-81 0 -146 38t-102 104t-37 148t37 148t102 104t146 38q72 0 131 -36t90 -93v117h57v-556zM465.5 72q51.5 32 81 86.5t29.5 119.5t-29.5 119.5t-81 86.5t-114.5 32q-67 0 -119.5 -32t-81.5 -86.5t-29 -119.5t29 -119.5
t81.5 -86.5t119.5 -32q63 0 114.5 32zM493 714l-24 -44l-241 112l24 43z" />
    <glyph glyph-name="aacute" unicode="&#xe1;" horiz-adv-x="728" 
d="M627 0h-57v117q-31 -57 -90 -93t-131 -36q-81 0 -146 38t-102 104t-37 148t37 148t102 104t146 38q72 0 131 -36t90 -93v117h57v-556zM465.5 72q51.5 32 81 86.5t29.5 119.5t-29.5 119.5t-81 86.5t-114.5 32q-67 0 -119.5 -32t-81.5 -86.5t-29 -119.5t29 -119.5
t81.5 -86.5t119.5 -32q63 0 114.5 32zM229 670l-24 44l241 111l24 -43z" />
    <glyph glyph-name="acircumflex" unicode="&#xe2;" horiz-adv-x="728" 
d="M627 0h-57v117q-31 -57 -90 -93t-131 -36q-81 0 -146 38t-102 104t-37 148t37 148t102 104t146 38q72 0 131 -36t90 -93v117h57v-556zM465.5 72q51.5 32 81 86.5t29.5 119.5t-29.5 119.5t-81 86.5t-114.5 32q-67 0 -119.5 -32t-81.5 -86.5t-29 -119.5t29 -119.5
t81.5 -86.5t119.5 -32q63 0 114.5 32zM349 777l-106 -117l-33 30l139 156l138 -156l-33 -30z" />
    <glyph glyph-name="atilde" unicode="&#xe3;" horiz-adv-x="728" 
d="M627 0h-57v117q-31 -57 -90 -93t-131 -36q-81 0 -146 38t-102 104t-37 148t37 148t102 104t146 38q72 0 131 -36t90 -93v117h57v-556zM465.5 72q51.5 32 81 86.5t29.5 119.5t-29.5 119.5t-81 86.5t-114.5 32q-67 0 -119.5 -32t-81.5 -86.5t-29 -119.5t29 -119.5
t81.5 -86.5t119.5 -32q63 0 114.5 32zM515 782q-19 -38 -42.5 -57t-55.5 -19q-23 0 -39.5 8t-39.5 23q-20 13 -30.5 18.5t-24.5 5.5q-20 0 -35 -13.5t-30 -40.5l-34 28q37 76 98 76q23 0 39.5 -8t39.5 -23q20 -13 30.5 -18.5t24.5 -5.5q19 0 34.5 13.5t30.5 40.5z" />
    <glyph glyph-name="adieresis" unicode="&#xe4;" horiz-adv-x="728" 
d="M627 0h-57v117q-31 -57 -90 -93t-131 -36q-81 0 -146 38t-102 104t-37 148t37 148t102 104t146 38q72 0 131 -36t90 -93v117h57v-556zM465.5 72q51.5 32 81 86.5t29.5 119.5t-29.5 119.5t-81 86.5t-114.5 32q-67 0 -119.5 -32t-81.5 -86.5t-29 -119.5t29 -119.5
t81.5 -86.5t119.5 -32q63 0 114.5 32zM210.5 727q-12.5 12 -12.5 30t12 29.5t30 11.5t30.5 -11.5t12.5 -29.5t-12.5 -30t-30.5 -12q-17 0 -29.5 12zM427 727q-12 12 -12 30t12 29.5t30 11.5t30 -11.5t12 -29.5t-12 -30t-30 -12t-30 12z" />
    <glyph glyph-name="aring" unicode="&#xe5;" horiz-adv-x="728" 
d="M627 0h-57v117q-31 -57 -90 -93t-131 -36q-81 0 -146 38t-102 104t-37 148t37 148t102 104t146 38q72 0 131 -36t90 -93v117h57v-556zM465.5 72q51.5 32 81 86.5t29.5 119.5t-29.5 119.5t-81 86.5t-114.5 32q-67 0 -119.5 -32t-81.5 -86.5t-29 -119.5t29 -119.5
t81.5 -86.5t119.5 -32q63 0 114.5 32zM284.5 664q-29.5 17 -46.5 46.5t-17 63.5t17 63.5t46.5 46.5t64.5 17q34 0 63.5 -17t46.5 -46.5t17 -63.5t-17 -63.5t-46.5 -46.5t-63.5 -17q-35 0 -64.5 17zM408 714.5q24 24.5 24 59.5t-24 59.5t-59 24.5t-59 -24.5t-24 -59.5
t24 -59.5t59 -24.5t59 24.5z" />
    <glyph glyph-name="ae" unicode="&#xe6;" horiz-adv-x="1182" 
d="M986 527.5q64 -40.5 100 -113t32 -162.5h-486q4 -60 34.5 -108t81 -76t113.5 -28q118 0 189 80l38 -35q-82 -97 -227 -97q-77 0 -138.5 34.5t-95.5 94.5v-117h-57v117q-31 -57 -90 -93t-131 -36q-81 0 -146 38t-102 104t-37 148t37 148t102 104t146 38q72 0 131 -36
t90 -93v117h57v-117q33 59 91.5 94t127.5 35q76 0 140 -40.5zM1026 410q-29 49 -76.5 77.5t-103.5 28.5t-103.5 -28t-77 -77t-33.5 -109h427q-4 59 -33 108zM465.5 72q51.5 32 81 86.5t29.5 119.5t-29.5 119.5t-81 86.5t-114.5 32q-67 0 -119.5 -32t-81.5 -86.5t-29 -119.5
t29 -119.5t81.5 -86.5t119.5 -32q63 0 114.5 32z" />
    <glyph glyph-name="ccedilla" unicode="&#xe7;" horiz-adv-x="607" 
d="M454.5 495.5q-47.5 20.5 -102.5 20.5q-67 0 -120 -32t-82 -86.5t-29 -119.5t29 -119.5t82 -86.5t120 -32q55 0 102.5 20.5t83.5 55.5v-63q-78 -65 -186 -65q-83 0 -148.5 38t-102.5 104t-37 148t37 148t102.5 104t148.5 38q108 0 186 -65v-63q-36 35 -83.5 55.5z
M311 -211h-60l70 131h60z" />
    <glyph glyph-name="egrave" unicode="&#xe8;" horiz-adv-x="673" 
d="M540 120l39 -35q-84 -97 -227 -97q-83 0 -148.5 38t-102.5 104t-37 148q0 81 36 147.5t98.5 104.5t138.5 38t139.5 -40.5t99.5 -113t32 -162.5h-485q6 -60 36 -108t80 -76t113 -28q117 0 188 80zM233.5 488q-47.5 -28 -77 -77t-33.5 -109h426q-4 59 -33 108t-76 77.5
t-103 28.5t-103.5 -28zM481 714l-24 -44l-241 112l24 43z" />
    <glyph glyph-name="eacute" unicode="&#xe9;" horiz-adv-x="673" 
d="M540 120l39 -35q-84 -97 -227 -97q-83 0 -148.5 38t-102.5 104t-37 148q0 81 36 147.5t98.5 104.5t138.5 38t139.5 -40.5t99.5 -113t32 -162.5h-485q6 -60 36 -108t80 -76t113 -28q117 0 188 80zM233.5 488q-47.5 -28 -77 -77t-33.5 -109h426q-4 59 -33 108t-76 77.5
t-103 28.5t-103.5 -28zM216 670l-24 44l241 111l24 -43z" />
    <glyph glyph-name="ecircumflex" unicode="&#xea;" horiz-adv-x="673" 
d="M540 120l39 -35q-84 -97 -227 -97q-83 0 -148.5 38t-102.5 104t-37 148q0 81 36 147.5t98.5 104.5t138.5 38t139.5 -40.5t99.5 -113t32 -162.5h-485q6 -60 36 -108t80 -76t113 -28q117 0 188 80zM233.5 488q-47.5 -28 -77 -77t-33.5 -109h426q-4 59 -33 108t-76 77.5
t-103 28.5t-103.5 -28zM337 777l-106 -117l-33 30l139 156l138 -156l-33 -30z" />
    <glyph glyph-name="edieresis" unicode="&#xeb;" horiz-adv-x="673" 
d="M540 120l39 -35q-84 -97 -227 -97q-83 0 -148.5 38t-102.5 104t-37 148q0 81 36 147.5t98.5 104.5t138.5 38t139.5 -40.5t99.5 -113t32 -162.5h-485q6 -60 36 -108t80 -76t113 -28q117 0 188 80zM233.5 488q-47.5 -28 -77 -77t-33.5 -109h426q-4 59 -33 108t-76 77.5
t-103 28.5t-103.5 -28zM198.5 727q-12.5 12 -12.5 30t12 29.5t30 11.5t30.5 -11.5t12.5 -29.5t-12.5 -30t-30.5 -12q-17 0 -29.5 12zM415 727q-12 12 -12 30t12 29.5t30 11.5t30 -11.5t12 -29.5t-12 -30t-30 -12t-30 12z" />
    <glyph glyph-name="igrave" unicode="&#xec;" 
d="M106 556h57v-556h-57v556zM279 714l-24 -44l-241 112l24 43z" />
    <glyph glyph-name="iacute" unicode="&#xed;" 
d="M106 556h57v-556h-57v556zM15 670l-24 44l241 111l24 -43z" />
    <glyph glyph-name="icircumflex" unicode="&#xee;" 
d="M106 556h57v-556h-57v556zM135 777l-106 -117l-33 30l139 156l138 -156l-33 -30z" />
    <glyph glyph-name="idieresis" unicode="&#xef;" 
d="M106 556h57v-556h-57v556zM-3.5 727q-12.5 12 -12.5 30t12 29.5t30 11.5t30.5 -11.5t12.5 -29.5t-12.5 -30t-30.5 -12q-17 0 -29.5 12zM213 727q-12 12 -12 30t12 29.5t30 11.5t30 -11.5t12 -29.5t-12 -30t-30 -12t-30 12z" />
    <glyph glyph-name="eth" unicode="&#xf0;" horiz-adv-x="663" 
d="M541 512.5q57 -132.5 57 -251.5q0 -76 -34 -138t-95 -97t-138 -35q-76 0 -137 35.5t-95.5 97t-34.5 137.5t34.5 137.5t95.5 97t137 35.5q52 0 94.5 -17.5t71.5 -51.5q-24 66 -72.5 133t-121.5 126l-83 -80l-47 21l92 88q-73 53 -170 93l47 33q90 -41 160 -90l93 90
l41 -27l-95 -92q143 -112 200 -244.5zM440 72.5q48 29.5 74.5 79.5t26.5 109q0 65 -26 114.5t-73.5 76t-110.5 26.5q-61 0 -109 -29t-74.5 -79t-26.5 -109t26.5 -109t74.5 -79.5t109 -29.5t109 29.5z" />
    <glyph glyph-name="ntilde" unicode="&#xf1;" horiz-adv-x="675" 
d="M163 462q25 46 75.5 76t115.5 30q100 0 160 -62.5t60 -172.5v-333h-57v322q0 94 -45.5 144t-131.5 50q-50 0 -90.5 -24t-63.5 -68t-23 -102v-322h-57v556h57v-94zM513 782q-19 -38 -42.5 -57t-55.5 -19q-23 0 -39.5 8t-39.5 23q-20 13 -30.5 18.5t-24.5 5.5
q-20 0 -35 -13.5t-30 -40.5l-34 28q37 76 98 76q23 0 39.5 -8t39.5 -23q20 -13 30.5 -18.5t24.5 -5.5q19 0 34.5 13.5t30.5 40.5z" />
    <glyph glyph-name="ograve" unicode="&#xf2;" horiz-adv-x="704" 
d="M499.5 530q65.5 -38 102.5 -104t37 -148t-37 -148t-102.5 -104t-147.5 -38q-83 0 -148.5 38t-102.5 104t-37 148t37 148t102.5 104t148.5 38q82 0 147.5 -38zM471.5 72q52.5 32 81.5 86.5t29 119.5t-29 119.5t-81.5 86.5t-119.5 32t-120 -32t-82 -86.5t-29 -119.5
t29 -119.5t82 -86.5t120 -32t119.5 32zM496 714l-24 -44l-241 112l24 43z" />
    <glyph glyph-name="oacute" unicode="&#xf3;" horiz-adv-x="704" 
d="M499.5 530q65.5 -38 102.5 -104t37 -148t-37 -148t-102.5 -104t-147.5 -38q-83 0 -148.5 38t-102.5 104t-37 148t37 148t102.5 104t148.5 38q82 0 147.5 -38zM471.5 72q52.5 32 81.5 86.5t29 119.5t-29 119.5t-81.5 86.5t-119.5 32t-120 -32t-82 -86.5t-29 -119.5
t29 -119.5t82 -86.5t120 -32t119.5 32zM232 670l-24 44l241 111l24 -43z" />
    <glyph glyph-name="ocircumflex" unicode="&#xf4;" horiz-adv-x="704" 
d="M499.5 530q65.5 -38 102.5 -104t37 -148t-37 -148t-102.5 -104t-147.5 -38q-83 0 -148.5 38t-102.5 104t-37 148t37 148t102.5 104t148.5 38q82 0 147.5 -38zM471.5 72q52.5 32 81.5 86.5t29 119.5t-29 119.5t-81.5 86.5t-119.5 32t-120 -32t-82 -86.5t-29 -119.5
t29 -119.5t82 -86.5t120 -32t119.5 32zM352 777l-106 -117l-33 30l139 156l138 -156l-33 -30z" />
    <glyph glyph-name="otilde" unicode="&#xf5;" horiz-adv-x="704" 
d="M499.5 530q65.5 -38 102.5 -104t37 -148t-37 -148t-102.5 -104t-147.5 -38q-83 0 -148.5 38t-102.5 104t-37 148t37 148t102.5 104t148.5 38q82 0 147.5 -38zM471.5 72q52.5 32 81.5 86.5t29 119.5t-29 119.5t-81.5 86.5t-119.5 32t-120 -32t-82 -86.5t-29 -119.5
t29 -119.5t82 -86.5t120 -32t119.5 32zM517 782q-19 -38 -42.5 -57t-55.5 -19q-23 0 -39.5 8t-39.5 23q-20 13 -30.5 18.5t-24.5 5.5q-20 0 -35 -13.5t-30 -40.5l-34 28q37 76 98 76q23 0 39.5 -8t39.5 -23q20 -13 30.5 -18.5t24.5 -5.5q19 0 34.5 13.5t30.5 40.5z" />
    <glyph glyph-name="odieresis" unicode="&#xf6;" horiz-adv-x="704" 
d="M499.5 530q65.5 -38 102.5 -104t37 -148t-37 -148t-102.5 -104t-147.5 -38q-83 0 -148.5 38t-102.5 104t-37 148t37 148t102.5 104t148.5 38q82 0 147.5 -38zM471.5 72q52.5 32 81.5 86.5t29 119.5t-29 119.5t-81.5 86.5t-119.5 32t-120 -32t-82 -86.5t-29 -119.5
t29 -119.5t82 -86.5t120 -32t119.5 32zM213.5 727q-12.5 12 -12.5 30t12 29.5t30 11.5t30.5 -11.5t12.5 -29.5t-12.5 -30t-30.5 -12q-17 0 -29.5 12zM430 727q-12 12 -12 30t12 29.5t30 11.5t30 -11.5t12 -29.5t-12 -30t-30 -12t-30 12z" />
    <glyph glyph-name="divide" unicode="&#xf7;" horiz-adv-x="695" 
d="M316.5 502q-12.5 12 -12.5 31t12.5 31.5t30.5 12.5q19 0 31.5 -12.5t12.5 -31.5t-12.5 -31t-31.5 -12q-18 0 -30.5 12zM69 322v52h556v-52h-556zM316.5 131.5q-12.5 12.5 -12.5 31.5t12.5 31t30.5 12q19 0 31.5 -12t12.5 -31t-12.5 -31.5t-31.5 -12.5q-18 0 -30.5 12.5z
" />
    <glyph glyph-name="oslash" unicode="&#xf8;" horiz-adv-x="704" 
d="M606 418.5q33 -63.5 33 -140.5q0 -82 -37 -148t-102.5 -104t-147.5 -38q-64 0 -118 23l-77 -140l-47 20l79 144q-59 39 -92 102.5t-33 140.5q0 82 37 148t102.5 104t148.5 38q63 0 117 -23l78 140l47 -21l-79 -143q58 -39 91 -102.5zM146.5 166q25.5 -52 70.5 -84
l228 416q-42 18 -93 18q-67 0 -120 -32t-82 -86.5t-29 -119.5q0 -60 25.5 -112zM471.5 72q52.5 32 81.5 86.5t29 119.5q0 61 -25 112.5t-70 83.5l-229 -415q44 -19 94 -19q67 0 119.5 32z" />
    <glyph glyph-name="ugrave" unicode="&#xf9;" horiz-adv-x="663" 
d="M164 211q0 -47 22.5 -86.5t61.5 -62t86 -22.5q46 0 85 22.5t62 62t23 86.5v345h57v-342q0 -63 -30.5 -115t-82.5 -81.5t-114 -29.5t-114 29.5t-83 81.5t-31 115v342h58v-345zM478 714l-24 -44l-241 112l24 43z" />
    <glyph glyph-name="uacute" unicode="&#xfa;" horiz-adv-x="663" 
d="M164 211q0 -47 22.5 -86.5t61.5 -62t86 -22.5q46 0 85 22.5t62 62t23 86.5v345h57v-342q0 -63 -30.5 -115t-82.5 -81.5t-114 -29.5t-114 29.5t-83 81.5t-31 115v342h58v-345zM213 670l-24 44l241 111l24 -43z" />
    <glyph glyph-name="ucircumflex" unicode="&#xfb;" horiz-adv-x="663" 
d="M164 211q0 -47 22.5 -86.5t61.5 -62t86 -22.5q46 0 85 22.5t62 62t23 86.5v345h57v-342q0 -63 -30.5 -115t-82.5 -81.5t-114 -29.5t-114 29.5t-83 81.5t-31 115v342h58v-345zM334 777l-106 -117l-33 30l139 156l138 -156l-33 -30z" />
    <glyph glyph-name="udieresis" unicode="&#xfc;" horiz-adv-x="663" 
d="M164 211q0 -47 22.5 -86.5t61.5 -62t86 -22.5q46 0 85 22.5t62 62t23 86.5v345h57v-342q0 -63 -30.5 -115t-82.5 -81.5t-114 -29.5t-114 29.5t-83 81.5t-31 115v342h58v-345zM195.5 727q-12.5 12 -12.5 30t12 29.5t30 11.5t30.5 -11.5t12.5 -29.5t-12.5 -30t-30.5 -12
q-17 0 -29.5 12zM412 727q-12 12 -12 30t12 29.5t30 11.5t30 -11.5t12 -29.5t-12 -30t-30 -12t-30 12z" />
    <glyph glyph-name="yacute" unicode="&#xfd;" horiz-adv-x="636" 
d="M319 82l243 474h59l-455 -879h-58l182 350l-274 529h61zM199 670l-24 44l241 111l24 -43z" />
    <glyph glyph-name="thorn" unicode="&#xfe;" horiz-adv-x="733" 
d="M253 532q59 36 131 36q81 0 146 -38t102 -104t37 -148t-37 -148t-102 -104t-146 -38q-72 0 -131 36t-90 93v-440h-57v1173h57v-411q31 57 90 93zM501.5 72q52.5 32 81.5 86.5t29 119.5t-29 119.5t-81.5 86.5t-119.5 32q-63 0 -114.5 -32t-81 -86.5t-29.5 -119.5
t29.5 -119.5t81 -86.5t114.5 -32q67 0 119.5 32z" />
    <glyph glyph-name="ydieresis" unicode="&#xff;" horiz-adv-x="636" 
d="M319 82l243 474h59l-455 -879h-58l182 350l-274 529h61zM181.5 727q-12.5 12 -12.5 30t12 29.5t30 11.5t30.5 -11.5t12.5 -29.5t-12.5 -30t-30.5 -12q-17 0 -29.5 12zM398 727q-12 12 -12 30t12 29.5t30 11.5t30 -11.5t12 -29.5t-12 -30t-30 -12t-30 12z" />
    <glyph glyph-name="Amacron" unicode="&#x100;" horiz-adv-x="955" 
d="M215 259l-135 -259h-63l461 876l460 -876h-63l-135 259h-525zM478 761l-235 -451h469zM333 991v51h290v-51h-290z" />
    <glyph glyph-name="amacron" unicode="&#x101;" horiz-adv-x="728" 
d="M627 0h-57v117q-31 -57 -90 -93t-131 -36q-81 0 -146 38t-102 104t-37 148t37 148t102 104t146 38q72 0 131 -36t90 -93v117h57v-556zM465.5 72q51.5 32 81 86.5t29.5 119.5t-29.5 119.5t-81 86.5t-114.5 32q-67 0 -119.5 -32t-81.5 -86.5t-29 -119.5t29 -119.5
t81.5 -86.5t119.5 -32q63 0 114.5 32zM204 732v50h290v-50h-290z" />
    <glyph glyph-name="Abreve" unicode="&#x102;" horiz-adv-x="955" 
d="M215 259l-135 -259h-63l461 876l460 -876h-63l-135 259h-525zM478 761l-235 -451h469zM593.5 1002.5q-48.5 -43.5 -116.5 -43.5q-44 0 -82 20t-62 55t-28 79h51q8 -47 41.5 -75.5t79.5 -28.5t80 28.5t41 75.5h51q-7 -67 -55.5 -110.5z" />
    <glyph glyph-name="abreve" unicode="&#x103;" horiz-adv-x="728" 
d="M627 0h-57v117q-31 -57 -90 -93t-131 -36q-81 0 -146 38t-102 104t-37 148t37 148t102 104t146 38q72 0 131 -36t90 -93v117h57v-556zM465.5 72q51.5 32 81 86.5t29.5 119.5t-29.5 119.5t-81 86.5t-114.5 32q-67 0 -119.5 -32t-81.5 -86.5t-29 -119.5t29 -119.5
t81.5 -86.5t119.5 -32q63 0 114.5 32zM465.5 729.5q-48.5 -43.5 -116.5 -43.5q-44 0 -82 20t-62 55t-28 79h51q8 -47 41.5 -75.5t79.5 -28.5t80 28.5t41 75.5h51q-7 -67 -55.5 -110.5z" />
    <glyph glyph-name="Aogonek" unicode="&#x104;" horiz-adv-x="955" 
d="M215 259l-135 -259h-63l461 876l460 -876h-63l-135 259h-525zM478 761l-235 -451h469zM968 -80l70 -131h-60l-70 131h60z" />
    <glyph glyph-name="aogonek" unicode="&#x105;" horiz-adv-x="728" 
d="M627 0h-57v117q-31 -57 -90 -93t-131 -36q-81 0 -146 38t-102 104t-37 148t37 148t102 104t146 38q72 0 131 -36t90 -93v117h57v-556zM465.5 72q51.5 32 81 86.5t29.5 119.5t-29.5 119.5t-81 86.5t-114.5 32q-67 0 -119.5 -32t-81.5 -86.5t-29 -119.5t29 -119.5
t81.5 -86.5t119.5 -32q63 0 114.5 32zM629 -80l70 -131h-60l-70 131h60z" />
    <glyph glyph-name="Cacute" unicode="&#x106;" horiz-adv-x="856" 
d="M656 777.5q-70 30.5 -150 30.5q-103 0 -190 -51.5t-138 -139.5t-51 -192t51 -192t138 -139.5t190 -51.5q79 0 149.5 30t128.5 84v-68q-54 -45 -125.5 -72.5t-152.5 -27.5q-119 0 -219.5 59t-159.5 159t-59 219t59 219.5t159.5 159t219.5 58.5q82 0 154 -28t127 -75
l-3 -65q-58 53 -128 83.5zM385 933l-24 43l242 112l23 -43z" />
    <glyph glyph-name="cacute" unicode="&#x107;" horiz-adv-x="607" 
d="M454.5 495.5q-47.5 20.5 -102.5 20.5q-67 0 -120 -32t-82 -86.5t-29 -119.5t29 -119.5t82 -86.5t120 -32q55 0 102.5 20.5t83.5 55.5v-63q-78 -65 -186 -65q-83 0 -148.5 38t-102.5 104t-37 148t37 148t102.5 104t148.5 38q108 0 186 -65v-63q-36 35 -83.5 55.5zM227 670
l-24 44l241 111l24 -43z" />
    <glyph glyph-name="Ccircumflex" unicode="&#x108;" horiz-adv-x="856" 
d="M656 777.5q-70 30.5 -150 30.5q-103 0 -190 -51.5t-138 -139.5t-51 -192t51 -192t138 -139.5t190 -51.5q79 0 149.5 30t128.5 84v-68q-54 -45 -125.5 -72.5t-152.5 -27.5q-119 0 -219.5 59t-159.5 159t-59 219t59 219.5t159.5 159t219.5 58.5q82 0 154 -28t127 -75
l-3 -65q-58 53 -128 83.5zM506 1058l-106 -117l-33 31l139 156l138 -156l-33 -31z" />
    <glyph glyph-name="ccircumflex" unicode="&#x109;" horiz-adv-x="607" 
d="M454.5 495.5q-47.5 20.5 -102.5 20.5q-67 0 -120 -32t-82 -86.5t-29 -119.5t29 -119.5t82 -86.5t120 -32q55 0 102.5 20.5t83.5 55.5v-63q-78 -65 -186 -65q-83 0 -148.5 38t-102.5 104t-37 148t37 148t102.5 104t148.5 38q108 0 186 -65v-63q-36 35 -83.5 55.5zM348 777
l-106 -117l-33 30l139 156l138 -156l-33 -30z" />
    <glyph glyph-name="Cdotaccent" unicode="&#x10a;" horiz-adv-x="856" 
d="M656 777.5q-70 30.5 -150 30.5q-103 0 -190 -51.5t-138 -139.5t-51 -192t51 -192t138 -139.5t190 -51.5q79 0 149.5 30t128.5 84v-68q-54 -45 -125.5 -72.5t-152.5 -27.5q-119 0 -219.5 59t-159.5 159t-59 219t59 219.5t159.5 159t219.5 58.5q82 0 154 -28t127 -75
l-3 -65q-58 53 -128 83.5zM474 990.5q-13 12.5 -13 31.5t13 31.5t32 12.5t31.5 -12.5t12.5 -31.5t-12.5 -31.5t-31.5 -12.5t-32 12.5z" />
    <glyph glyph-name="cdotaccent" unicode="&#x10b;" horiz-adv-x="607" 
d="M454.5 495.5q-47.5 20.5 -102.5 20.5q-67 0 -120 -32t-82 -86.5t-29 -119.5t29 -119.5t82 -86.5t120 -32q55 0 102.5 20.5t83.5 55.5v-63q-78 -65 -186 -65q-83 0 -148.5 38t-102.5 104t-37 148t37 148t102.5 104t148.5 38q108 0 186 -65v-63q-36 35 -83.5 55.5zM316 726
q-13 12 -13 31t13 31.5t32 12.5t31.5 -12.5t12.5 -31.5t-12.5 -31t-31.5 -12t-32 12z" />
    <glyph glyph-name="Ccaron" unicode="&#x10c;" horiz-adv-x="856" 
d="M656 777.5q-70 30.5 -150 30.5q-103 0 -190 -51.5t-138 -139.5t-51 -192t51 -192t138 -139.5t190 -51.5q79 0 149.5 30t128.5 84v-68q-54 -45 -125.5 -72.5t-152.5 -27.5q-119 0 -219.5 59t-159.5 159t-59 219t59 219.5t159.5 159t219.5 58.5q82 0 154 -28t127 -75
l-3 -65q-58 53 -128 83.5zM644 1097l-138 -156l-139 156l33 31l106 -117l105 117z" />
    <glyph glyph-name="ccaron" unicode="&#x10d;" horiz-adv-x="607" 
d="M454.5 495.5q-47.5 20.5 -102.5 20.5q-67 0 -120 -32t-82 -86.5t-29 -119.5t29 -119.5t82 -86.5t120 -32q55 0 102.5 20.5t83.5 55.5v-63q-78 -65 -186 -65q-83 0 -148.5 38t-102.5 104t-37 148t37 148t102.5 104t148.5 38q108 0 186 -65v-63q-36 35 -83.5 55.5zM486 816
l-138 -156l-139 156l33 30l106 -116l105 116z" />
    <glyph glyph-name="Dcaron" unicode="&#x10e;" horiz-adv-x="808" 
d="M511.5 794q108.5 -56 168 -153t59.5 -216t-59.5 -216t-168 -153t-250.5 -56h-148v850h148q142 0 250.5 -56zM482.5 102.5q95.5 49.5 147 134.5t51.5 188q0 104 -51.5 189t-147 134t-221.5 49h-90v-744h90q126 0 221.5 49.5zM515 1097l-138 -156l-139 156l33 31l106 -117
l105 117z" />
    <glyph glyph-name="dcaron" unicode="&#x10f;" horiz-adv-x="728" 
d="M627 0h-57v117q-31 -57 -90 -93t-131 -36q-81 0 -146 38t-102 104t-37 148t37 148t102 104t146 38q72 0 131 -36t90 -93v411h57v-850zM465.5 72q51.5 32 81 86.5t29.5 119.5t-29.5 119.5t-81 86.5t-114.5 32q-67 0 -119.5 -32t-81.5 -86.5t-29 -119.5t29 -119.5
t81.5 -86.5t119.5 -32q63 0 114.5 32zM670 632l97 243l44 -25l-97 -244z" />
    <glyph glyph-name="Dcroat" unicode="&#x110;" horiz-adv-x="811" 
d="M514.5 794q108.5 -56 168 -153t59.5 -216t-59.5 -216t-168 -153t-250.5 -56h-147v399h-102v52h102v399h147q142 0 250.5 -56zM485.5 102.5q95.5 49.5 147 134.5t51.5 188q0 104 -51.5 189t-147 134t-221.5 49h-90v-346h223v-52h-223v-346h90q126 0 221.5 49.5z" />
    <glyph glyph-name="dcroat" unicode="&#x111;" horiz-adv-x="733" 
d="M704 687h-77v-687h-57v117q-31 -57 -90 -93t-131 -36q-81 0 -146 38t-102 104t-37 148t37 148t102 104t146 38q72 0 131 -36t90 -93v248h-182v51h182v112h57v-112h77v-51zM465.5 72q51.5 32 81 86.5t29.5 119.5t-29.5 119.5t-81 86.5t-114.5 32q-67 0 -119.5 -32
t-81.5 -86.5t-29 -119.5t29 -119.5t81.5 -86.5t119.5 -32q63 0 114.5 32z" />
    <glyph glyph-name="Emacron" unicode="&#x112;" horiz-adv-x="648" 
d="M171 451h383v-52h-383v-346h402v-53h-460v850h460v-54h-402v-345zM199 991v51h290v-51h-290z" />
    <glyph glyph-name="emacron" unicode="&#x113;" horiz-adv-x="673" 
d="M540 120l39 -35q-84 -97 -227 -97q-83 0 -148.5 38t-102.5 104t-37 148q0 81 36 147.5t98.5 104.5t138.5 38t139.5 -40.5t99.5 -113t32 -162.5h-485q6 -60 36 -108t80 -76t113 -28q117 0 188 80zM233.5 488q-47.5 -28 -77 -77t-33.5 -109h426q-4 59 -33 108t-76 77.5
t-103 28.5t-103.5 -28zM192 732v50h290v-50h-290z" />
    <glyph glyph-name="Ebreve" unicode="&#x114;" horiz-adv-x="648" 
d="M171 451h383v-52h-383v-346h402v-53h-460v850h460v-54h-402v-345zM459.5 1002.5q-48.5 -43.5 -116.5 -43.5q-44 0 -82 20t-62 55t-28 79h51q8 -47 41.5 -75.5t79.5 -28.5t80 28.5t41 75.5h51q-7 -67 -55.5 -110.5z" />
    <glyph glyph-name="ebreve" unicode="&#x115;" horiz-adv-x="673" 
d="M540 120l39 -35q-84 -97 -227 -97q-83 0 -148.5 38t-102.5 104t-37 148q0 81 36 147.5t98.5 104.5t138.5 38t139.5 -40.5t99.5 -113t32 -162.5h-485q6 -60 36 -108t80 -76t113 -28q117 0 188 80zM233.5 488q-47.5 -28 -77 -77t-33.5 -109h426q-4 59 -33 108t-76 77.5
t-103 28.5t-103.5 -28zM452.5 729.5q-48.5 -43.5 -116.5 -43.5q-44 0 -82 20t-62 55t-28 79h51q8 -47 41.5 -75.5t79.5 -28.5t80 28.5t41 75.5h51q-7 -67 -55.5 -110.5z" />
    <glyph glyph-name="Edotaccent" unicode="&#x116;" horiz-adv-x="648" 
d="M171 451h383v-52h-383v-346h402v-53h-460v850h460v-54h-402v-345zM312 990.5q-13 12.5 -13 31.5t13 31.5t32 12.5t31.5 -12.5t12.5 -31.5t-12.5 -31.5t-31.5 -12.5t-32 12.5z" />
    <glyph glyph-name="edotaccent" unicode="&#x117;" horiz-adv-x="673" 
d="M540 120l39 -35q-84 -97 -227 -97q-83 0 -148.5 38t-102.5 104t-37 148q0 81 36 147.5t98.5 104.5t138.5 38t139.5 -40.5t99.5 -113t32 -162.5h-485q6 -60 36 -108t80 -76t113 -28q117 0 188 80zM233.5 488q-47.5 -28 -77 -77t-33.5 -109h426q-4 59 -33 108t-76 77.5
t-103 28.5t-103.5 -28zM305 726q-13 12 -13 31t13 31.5t32 12.5t31.5 -12.5t12.5 -31.5t-12.5 -31t-31.5 -12t-32 12z" />
    <glyph glyph-name="Eogonek" unicode="&#x118;" horiz-adv-x="648" 
d="M171 451h383v-52h-383v-346h402v-53h-460v850h460v-54h-402v-345zM373 -80l70 -131h-60l-70 131h60z" />
    <glyph glyph-name="eogonek" unicode="&#x119;" horiz-adv-x="673" 
d="M540 120l39 -35q-84 -97 -227 -97q-83 0 -148.5 38t-102.5 104t-37 148q0 81 36 147.5t98.5 104.5t138.5 38t139.5 -40.5t99.5 -113t32 -162.5h-485q6 -60 36 -108t80 -76t113 -28q117 0 188 80zM233.5 488q-47.5 -28 -77 -77t-33.5 -109h426q-4 59 -33 108t-76 77.5
t-103 28.5t-103.5 -28zM382 -80l70 -131h-60l-70 131h60z" />
    <glyph glyph-name="Ecaron" unicode="&#x11a;" horiz-adv-x="648" 
d="M171 451h383v-52h-383v-346h402v-53h-460v850h460v-54h-402v-345zM482 1097l-138 -156l-139 156l33 31l106 -117l105 117z" />
    <glyph glyph-name="ecaron" unicode="&#x11b;" horiz-adv-x="673" 
d="M540 120l39 -35q-84 -97 -227 -97q-83 0 -148.5 38t-102.5 104t-37 148q0 81 36 147.5t98.5 104.5t138.5 38t139.5 -40.5t99.5 -113t32 -162.5h-485q6 -60 36 -108t80 -76t113 -28q117 0 188 80zM233.5 488q-47.5 -28 -77 -77t-33.5 -109h426q-4 59 -33 108t-76 77.5
t-103 28.5t-103.5 -28zM475 816l-138 -156l-139 156l33 30l106 -116l105 116z" />
    <glyph glyph-name="Gcircumflex" unicode="&#x11c;" horiz-adv-x="937" 
d="M862 125q-58 -61 -147 -99t-209 -38q-119 0 -219.5 59t-159.5 159t-59 219t59 219t159.5 159t219.5 59q91 0 169 -34t137 -91l-27 -47q-59 55 -129.5 86t-149.5 31q-103 0 -190 -51.5t-138 -139t-51 -191.5t51 -191.5t138 -139t190 -51.5q186 0 299 104v207h-306v53h363
v-282zM506 1058l-106 -117l-33 31l139 156l138 -156l-33 -31z" />
    <glyph glyph-name="gcircumflex" unicode="&#x11d;" horiz-adv-x="701" 
d="M600 -98q0 -116 -71 -173.5t-181 -57.5q-102 0 -172 51.5t-80 140.5h57q9 -66 63.5 -103t131.5 -37q83 0 139 44.5t56 136.5v233q-31 -53 -86.5 -86t-122.5 -33q-77 0 -138.5 36t-96.5 99t-35 140t35 140t96.5 99t138.5 36q67 0 122.5 -33t86.5 -85v106h57v-654zM445 100
q48 30 76 81t28 112t-27.5 112t-76 81t-107.5 30q-63 0 -112.5 -30t-77 -81t-27.5 -112t27.5 -112t77 -81t112.5 -30q59 0 107 30zM339 777l-106 -117l-33 30l139 156l138 -156l-33 -30z" />
    <glyph glyph-name="Gbreve" unicode="&#x11e;" horiz-adv-x="937" 
d="M862 125q-58 -61 -147 -99t-209 -38q-119 0 -219.5 59t-159.5 159t-59 219t59 219t159.5 159t219.5 59q91 0 169 -34t137 -91l-27 -47q-59 55 -129.5 86t-149.5 31q-103 0 -190 -51.5t-138 -139t-51 -191.5t51 -191.5t138 -139t190 -51.5q186 0 299 104v207h-306v53h363
v-282zM621.5 1002.5q-48.5 -43.5 -116.5 -43.5q-44 0 -82 20t-62 55t-28 79h51q8 -47 41.5 -75.5t79.5 -28.5t80 28.5t41 75.5h51q-7 -67 -55.5 -110.5z" />
    <glyph glyph-name="gbreve" unicode="&#x11f;" horiz-adv-x="701" 
d="M600 -98q0 -116 -71 -173.5t-181 -57.5q-102 0 -172 51.5t-80 140.5h57q9 -66 63.5 -103t131.5 -37q83 0 139 44.5t56 136.5v233q-31 -53 -86.5 -86t-122.5 -33q-77 0 -138.5 36t-96.5 99t-35 140t35 140t96.5 99t138.5 36q67 0 122.5 -33t86.5 -85v106h57v-654zM445 100
q48 30 76 81t28 112t-27.5 112t-76 81t-107.5 30q-63 0 -112.5 -30t-77 -81t-27.5 -112t27.5 -112t77 -81t112.5 -30q59 0 107 30zM454.5 729.5q-48.5 -43.5 -116.5 -43.5q-44 0 -82 20t-62 55t-28 79h51q8 -47 41.5 -75.5t79.5 -28.5t80 28.5t41 75.5h51
q-7 -67 -55.5 -110.5z" />
    <glyph glyph-name="Gdotaccent" unicode="&#x120;" horiz-adv-x="937" 
d="M862 125q-58 -61 -147 -99t-209 -38q-119 0 -219.5 59t-159.5 159t-59 219t59 219t159.5 159t219.5 59q91 0 169 -34t137 -91l-27 -47q-59 55 -129.5 86t-149.5 31q-103 0 -190 -51.5t-138 -139t-51 -191.5t51 -191.5t138 -139t190 -51.5q186 0 299 104v207h-306v53h363
v-282zM474 990.5q-13 12.5 -13 31.5t13 31.5t32 12.5t31.5 -12.5t12.5 -31.5t-12.5 -31.5t-31.5 -12.5t-32 12.5z" />
    <glyph glyph-name="gdotaccent" unicode="&#x121;" horiz-adv-x="701" 
d="M600 -98q0 -116 -71 -173.5t-181 -57.5q-102 0 -172 51.5t-80 140.5h57q9 -66 63.5 -103t131.5 -37q83 0 139 44.5t56 136.5v233q-31 -53 -86.5 -86t-122.5 -33q-77 0 -138.5 36t-96.5 99t-35 140t35 140t96.5 99t138.5 36q67 0 122.5 -33t86.5 -85v106h57v-654zM445 100
q48 30 76 81t28 112t-27.5 112t-76 81t-107.5 30q-63 0 -112.5 -30t-77 -81t-27.5 -112t27.5 -112t77 -81t112.5 -30q59 0 107 30zM307 726q-13 12 -13 31t13 31.5t32 12.5t31.5 -12.5t12.5 -31.5t-12.5 -31t-31.5 -12t-32 12z" />
    <glyph glyph-name="Gcommaaccent" unicode="&#x122;" horiz-adv-x="937" 
d="M862 125q-58 -61 -147 -99t-209 -38q-119 0 -219.5 59t-159.5 159t-59 219t59 219t159.5 159t219.5 59q91 0 169 -34t137 -91l-27 -47q-59 55 -129.5 86t-149.5 31q-103 0 -190 -51.5t-138 -139t-51 -191.5t51 -191.5t138 -139t190 -51.5q186 0 299 104v207h-306v53h363
v-282zM465 -211h-60l70 131h60z" />
    <glyph glyph-name="gcommaaccent" unicode="&#x123;" horiz-adv-x="701" 
d="M379 767h60l-70 -131h-60zM600 -98q0 -116 -71 -173.5t-181 -57.5q-102 0 -172 51.5t-80 140.5h57q9 -66 63.5 -103t131.5 -37q83 0 139 44.5t56 136.5v233q-31 -53 -86.5 -86t-122.5 -33q-77 0 -138.5 36t-96.5 99t-35 140t35 140t96.5 99t138.5 36q67 0 122.5 -33
t86.5 -85v106h57v-654zM445 100q48 30 76 81t28 112t-27.5 112t-76 81t-107.5 30q-63 0 -112.5 -30t-77 -81t-27.5 -112t27.5 -112t77 -81t112.5 -30q59 0 107 30z" />
    <glyph glyph-name="Hcircumflex" unicode="&#x124;" horiz-adv-x="835" 
d="M722 0h-57v399h-494v-399h-58v850h58v-399h494v399h57v-850zM418 1058l-106 -117l-33 31l139 156l138 -156l-33 -31z" />
    <glyph glyph-name="hcircumflex" unicode="&#x125;" horiz-adv-x="675" 
d="M163 462q25 46 75.5 76t115.5 30q100 0 160 -62.5t60 -172.5v-333h-57v322q0 94 -45.5 144t-131.5 50q-50 0 -90.5 -24t-63.5 -68t-23 -102v-322h-57v850h57v-388zM340 1058l-106 -117l-33 31l139 156l138 -156l-33 -31z" />
    <glyph glyph-name="Hbar" unicode="&#x126;" horiz-adv-x="835" 
d="M788 630h-66v-630h-57v399h-494v-399h-58v630h-65v51h65v169h58v-169h494v169h57v-169h66v-51zM665 630h-494v-179h494v179z" />
    <glyph glyph-name="hbar" unicode="&#x127;" horiz-adv-x="675" 
d="M514 505.5q60 -62.5 60 -172.5v-333h-57v322q0 94 -45.5 144t-131.5 50q-50 0 -90.5 -24t-63.5 -68t-23 -102v-322h-57v687h-76v51h76v112h57v-112h182v-51h-182v-225q25 46 75.5 76t115.5 30q100 0 160 -62.5z" />
    <glyph glyph-name="Itilde" unicode="&#x128;" horiz-adv-x="284" 
d="M113 0v850h58v-850h-58zM307 1041q-19 -39 -42.5 -58t-55.5 -19q-23 0 -39.5 8t-39.5 23q-20 13 -30.5 18.5t-24.5 5.5q-20 0 -35 -13.5t-30 -40.5l-34 28q37 77 98 77q23 0 39.5 -8t39.5 -23q20 -13 30.5 -18.5t24.5 -5.5q20 0 35 13.5t30 40.5z" />
    <glyph glyph-name="itilde" unicode="&#x129;" 
d="M106 556h57v-556h-57v556zM300 782q-19 -38 -42.5 -57t-55.5 -19q-23 0 -39.5 8t-39.5 23q-20 13 -30.5 18.5t-24.5 5.5q-20 0 -35 -13.5t-30 -40.5l-34 28q37 76 98 76q23 0 39.5 -8t39.5 -23q20 -13 30.5 -18.5t24.5 -5.5q19 0 34.5 13.5t30.5 40.5z" />
    <glyph glyph-name="Imacron" unicode="&#x12a;" horiz-adv-x="284" 
d="M113 0v850h58v-850h-58zM-3 991v51h290v-51h-290z" />
    <glyph glyph-name="imacron" unicode="&#x12b;" 
d="M106 556h57v-556h-57v556zM-10 732v50h290v-50h-290z" />
    <glyph glyph-name="Ibreve" unicode="&#x12c;" horiz-adv-x="284" 
d="M113 0v850h58v-850h-58zM258.5 1002.5q-48.5 -43.5 -116.5 -43.5q-44 0 -82 20t-62 55t-28 79h51q8 -47 41.5 -75.5t79.5 -28.5t80 28.5t41 75.5h51q-7 -67 -55.5 -110.5z" />
    <glyph glyph-name="ibreve" unicode="&#x12d;" 
d="M106 556h57v-556h-57v556zM251.5 729.5q-48.5 -43.5 -116.5 -43.5q-44 0 -82 20t-62 55t-28 79h51q8 -47 41.5 -75.5t79.5 -28.5t80 28.5t41 75.5h51q-7 -67 -55.5 -110.5z" />
    <glyph glyph-name="Iogonek" unicode="&#x12e;" horiz-adv-x="284" 
d="M113 0v850h58v-850h-58zM172 -80l70 -131h-60l-70 131h60z" />
    <glyph glyph-name="iogonek" unicode="&#x12f;" 
d="M106 556h57v-556h-57v556zM103 726q-13 12 -13 31t13 31.5t32 12.5t31.5 -12.5t12.5 -31.5t-12.5 -31t-31.5 -12t-32 12zM165 -80l70 -131h-60l-70 131h60z" />
    <glyph glyph-name="Idotaccent" unicode="&#x130;" horiz-adv-x="284" 
d="M113 0v850h58v-850h-58zM110 990.5q-13 12.5 -13 31.5t13 31.5t32 12.5t31.5 -12.5t12.5 -31.5t-12.5 -31.5t-31.5 -12.5t-32 12.5z" />
    <glyph glyph-name="dotlessi" unicode="&#x131;" 
d="M106 556h57v-556h-57v556z" />
    <glyph glyph-name="IJ" unicode="&#x132;" horiz-adv-x="917" 
d="M113 0v850h58v-850h-58zM804 259q0 -78 -35 -139.5t-94.5 -96.5t-130.5 -35q-92 0 -157 52.5t-87 129.5l49 14q22 -63 73 -102.5t122 -39.5q57 0 103.5 28t73 78.5t26.5 114.5v587h57v-591z" />
    <glyph glyph-name="ij" unicode="&#x133;" horiz-adv-x="530" 
d="M103 726q-13 12 -13 31t13 31.5t32 12.5t31.5 -12.5t12.5 -31.5t-12.5 -31t-31.5 -12t-32 12zM368 726q-13 12 -13 31t13 31.5t32 12.5t31.5 -12.5t12.5 -31.5t-12.5 -31t-31.5 -12t-32 12zM106 556h57v-556h-57v556zM371 -323v879h57v-879h-57z" />
    <glyph glyph-name="Jcircumflex" unicode="&#x134;" horiz-adv-x="633" 
d="M520 259q0 -78 -35 -139.5t-94.5 -96.5t-130.5 -35q-92 0 -157 52.5t-87 129.5l49 14q22 -63 73 -102.5t122 -39.5q57 0 103.5 28t73 78.5t26.5 114.5v587h57v-591zM491 1058l-106 -117l-33 31l139 156l138 -156l-33 -31z" />
    <glyph glyph-name="jcircumflex" unicode="&#x135;" 
d="M106 -323v879h57v-879h-57zM135 777l-106 -117l-33 30l139 156l138 -156l-33 -30z" />
    <glyph glyph-name="Kcommaaccent" unicode="&#x136;" horiz-adv-x="691" 
d="M171 850v-410l438 410h78l-454 -424l456 -426h-80l-438 410v-410h-58v850h58zM339 -211h-60l70 131h60z" />
    <glyph glyph-name="kcommaaccent" unicode="&#x137;" horiz-adv-x="551" 
d="M164 272v-272h-58v850h58v-548l289 254h77l-304 -268l316 -288h-78zM270 -211h-60l70 131h60z" />
    <glyph glyph-name="kgreenlandic" unicode="&#x138;" horiz-adv-x="542" 
d="M164 272v-272h-58v556h58v-254l281 254h76l-295 -268l308 -288h-79z" />
    <glyph glyph-name="Lacute" unicode="&#x139;" horiz-adv-x="617" 
d="M113 850h58v-797h433v-53h-491v850zM22 933l-24 43l242 112l23 -43z" />
    <glyph glyph-name="lacute" unicode="&#x13a;" 
d="M106 850h57v-850h-57v850zM15 933l-24 43l242 112l23 -43z" />
    <glyph glyph-name="Lcommaaccent" unicode="&#x13b;" horiz-adv-x="617" 
d="M113 850h58v-797h433v-53h-491v850zM318 -211h-60l70 131h60z" />
    <glyph glyph-name="lcommaaccent" unicode="&#x13c;" 
d="M106 850h57v-850h-57v850zM95 -211h-60l70 131h60z" />
    <glyph glyph-name="Lcaron" unicode="&#x13d;" horiz-adv-x="629" 
d="M113 850h58v-797h433v-53h-491v850zM213 632l97 243l44 -25l-97 -244z" />
    <glyph glyph-name="lcaron" unicode="&#x13e;" 
d="M106 850h57v-850h-57v850zM207 632l97 243l44 -25l-97 -244z" />
    <glyph glyph-name="Ldot" unicode="&#x13f;" horiz-adv-x="617" 
d="M113 850h58v-797h433v-53h-491v850zM384.5 430q-12.5 12 -12.5 31t12.5 31.5t30.5 12.5q19 0 31.5 -12.5t12.5 -31.5t-12.5 -31t-31.5 -12q-18 0 -30.5 12z" />
    <glyph glyph-name="ldot" unicode="&#x140;" horiz-adv-x="316" 
d="M106 850h57v-850h-57v850zM257.5 390q-12.5 12 -12.5 31t12.5 31.5t30.5 12.5q19 0 31.5 -12.5t12.5 -31.5t-12.5 -31t-31.5 -12q-18 0 -30.5 12z" />
    <glyph glyph-name="Lslash" unicode="&#x141;" horiz-adv-x="612" 
d="M599 53v-53h-490v366l-65 -40l-23 43l88 55v426h57v-391l183 115l24 -43l-207 -129v-349h433z" />
    <glyph glyph-name="lslash" unicode="&#x142;" horiz-adv-x="284" 
d="M170 418v-418h-57v383l-61 -39l-24 44l85 53v409h57v-374l83 52l24 -43z" />
    <glyph glyph-name="Nacute" unicode="&#x143;" horiz-adv-x="887" 
d="M718 122v728h56v-876l-605 754v-728h-56v876zM319 933l-24 43l242 112l23 -43z" />
    <glyph glyph-name="nacute" unicode="&#x144;" horiz-adv-x="675" 
d="M163 462q25 46 75.5 76t115.5 30q100 0 160 -62.5t60 -172.5v-333h-57v322q0 94 -45.5 144t-131.5 50q-50 0 -90.5 -24t-63.5 -68t-23 -102v-322h-57v556h57v-94zM227 670l-24 44l241 111l24 -43z" />
    <glyph glyph-name="Ncommaaccent" unicode="&#x145;" horiz-adv-x="887" 
d="M718 122v728h56v-876l-605 754v-728h-56v876zM408 -211h-60l70 131h60z" />
    <glyph glyph-name="ncommaaccent" unicode="&#x146;" horiz-adv-x="675" 
d="M163 462q25 46 75.5 76t115.5 30q100 0 160 -62.5t60 -172.5v-333h-57v322q0 94 -45.5 144t-131.5 50q-50 0 -90.5 -24t-63.5 -68t-23 -102v-322h-57v556h57v-94zM300 -211h-60l70 131h60z" />
    <glyph glyph-name="Ncaron" unicode="&#x147;" horiz-adv-x="887" 
d="M718 122v728h56v-876l-605 754v-728h-56v876zM577 1097l-138 -156l-139 156l33 31l106 -117l105 117z" />
    <glyph glyph-name="ncaron" unicode="&#x148;" horiz-adv-x="675" 
d="M163 462q25 46 75.5 76t115.5 30q100 0 160 -62.5t60 -172.5v-333h-57v322q0 94 -45.5 144t-131.5 50q-50 0 -90.5 -24t-63.5 -68t-23 -102v-322h-57v556h57v-94zM486 816l-138 -156l-139 156l33 30l106 -116l105 116z" />
    <glyph glyph-name="napostrophe" unicode="&#x149;" horiz-adv-x="675" 
d="M163 462q25 46 75.5 76t115.5 30q100 0 160 -62.5t60 -172.5v-333h-57v322q0 94 -45.5 144t-131.5 50q-50 0 -90.5 -24t-63.5 -68t-23 -102v-322h-57v556h57v-94zM34 632l98 243l44 -25l-97 -244z" />
    <glyph glyph-name="Eng" unicode="&#x14a;" horiz-adv-x="904" 
d="M791 39q0 -78 -35 -140t-94.5 -97t-131.5 -35q-91 0 -156 52.5t-88 130.5l50 13q21 -63 72.5 -102.5t122.5 -39.5q56 0 101 27t72 74.5t30 107.5v9l-565 690v-729h-56v876l622 -757v731h56v-811z" />
    <glyph glyph-name="Omacron" unicode="&#x14c;" horiz-adv-x="1011" 
d="M725 803.5q100 -58.5 159 -159t59 -219.5t-59 -219t-159 -159t-219 -59t-219.5 59t-159.5 159t-59 219t59 219.5t159.5 159t219.5 58.5t219 -58.5zM695.5 94.5q86.5 51.5 137.5 139t51 191.5t-51 191.5t-137.5 139t-189.5 51.5t-190 -51.5t-138 -139t-51 -191.5
t51 -191.5t138 -139t190 -51.5t189.5 51.5zM361 991v51h290v-51h-290z" />
    <glyph glyph-name="omacron" unicode="&#x14d;" horiz-adv-x="704" 
d="M499.5 530q65.5 -38 102.5 -104t37 -148t-37 -148t-102.5 -104t-147.5 -38q-83 0 -148.5 38t-102.5 104t-37 148t37 148t102.5 104t148.5 38q82 0 147.5 -38zM471.5 72q52.5 32 81.5 86.5t29 119.5t-29 119.5t-81.5 86.5t-119.5 32t-120 -32t-82 -86.5t-29 -119.5
t29 -119.5t82 -86.5t120 -32t119.5 32zM207 732v50h290v-50h-290z" />
    <glyph glyph-name="Obreve" unicode="&#x14e;" horiz-adv-x="1011" 
d="M725 803.5q100 -58.5 159 -159t59 -219.5t-59 -219t-159 -159t-219 -59t-219.5 59t-159.5 159t-59 219t59 219.5t159.5 159t219.5 58.5t219 -58.5zM695.5 94.5q86.5 51.5 137.5 139t51 191.5t-51 191.5t-137.5 139t-189.5 51.5t-190 -51.5t-138 -139t-51 -191.5
t51 -191.5t138 -139t190 -51.5t189.5 51.5zM622.5 1002.5q-48.5 -43.5 -116.5 -43.5q-44 0 -82 20t-62 55t-28 79h51q8 -47 41.5 -75.5t79.5 -28.5t80 28.5t41 75.5h51q-7 -67 -55.5 -110.5z" />
    <glyph glyph-name="obreve" unicode="&#x14f;" horiz-adv-x="704" 
d="M499.5 530q65.5 -38 102.5 -104t37 -148t-37 -148t-102.5 -104t-147.5 -38q-83 0 -148.5 38t-102.5 104t-37 148t37 148t102.5 104t148.5 38q82 0 147.5 -38zM471.5 72q52.5 32 81.5 86.5t29 119.5t-29 119.5t-81.5 86.5t-119.5 32t-120 -32t-82 -86.5t-29 -119.5
t29 -119.5t82 -86.5t120 -32t119.5 32zM468.5 729.5q-48.5 -43.5 -116.5 -43.5q-44 0 -82 20t-62 55t-28 79h51q8 -47 41.5 -75.5t79.5 -28.5t80 28.5t41 75.5h51q-7 -67 -55.5 -110.5z" />
    <glyph glyph-name="Ohungarumlaut" unicode="&#x150;" horiz-adv-x="1011" 
d="M725 803.5q100 -58.5 159 -159t59 -219.5t-59 -219t-159 -159t-219 -59t-219.5 59t-159.5 159t-59 219t59 219.5t159.5 159t219.5 58.5t219 -58.5zM695.5 94.5q86.5 51.5 137.5 139t51 191.5t-51 191.5t-137.5 139t-189.5 51.5t-190 -51.5t-138 -139t-51 -191.5
t51 -191.5t138 -139t190 -51.5t189.5 51.5zM602 935l-41 26l75 140l42 -25zM430 935l-41 26l76 140l41 -25z" />
    <glyph glyph-name="ohungarumlaut" unicode="&#x151;" horiz-adv-x="704" 
d="M499.5 530q65.5 -38 102.5 -104t37 -148t-37 -148t-102.5 -104t-147.5 -38q-83 0 -148.5 38t-102.5 104t-37 148t37 148t102.5 104t148.5 38q82 0 147.5 -38zM471.5 72q52.5 32 81.5 86.5t29 119.5t-29 119.5t-81.5 86.5t-119.5 32t-120 -32t-82 -86.5t-29 -119.5
t29 -119.5t82 -86.5t120 -32t119.5 32zM276 656l-41 26l76 139l41 -24zM448 656l-41 26l75 139l42 -24z" />
    <glyph glyph-name="OE" unicode="&#x152;" horiz-adv-x="1264" 
d="M1189 796h-452q89 -56 144 -146.5t61 -198.5h228v-52h-228q-6 -108 -61.5 -199t-144.5 -147h453v-53h-580q-50 -12 -103 -12q-119 0 -219.5 59t-159.5 159t-59 219t59 219.5t159.5 159t219.5 58.5q53 0 103 -12h580v-54zM833 616.5q-51 87.5 -137.5 139t-189.5 51.5
t-190 -51.5t-138 -139t-51 -191.5t51 -191.5t138 -139t190 -51.5t189.5 51.5t137.5 139t51 191.5t-51 191.5z" />
    <glyph glyph-name="oe" unicode="&#x153;" horiz-adv-x="1190" 
d="M994 527.5q64 -40.5 100 -113t32 -162.5h-485q6 -60 36 -108t80 -76t113 -28q117 0 188 80l38 -35q-82 -97 -226 -97q-90 0 -159 46t-100 124q-32 -78 -100.5 -124t-158.5 -46q-83 0 -148.5 38t-102.5 104t-37 148t37 148t102.5 104t148.5 38q90 0 158.5 -45.5
t99.5 -123.5q31 77 96.5 123t147.5 46q76 0 140 -40.5zM1034 410q-29 49 -76.5 77.5t-103.5 28.5t-103 -28t-76.5 -77t-33.5 -109h426q-4 59 -33 108zM471.5 72q52.5 32 81.5 86.5t29 119.5t-29 119.5t-81.5 86.5t-119.5 32t-120 -32t-82 -86.5t-29 -119.5t29 -119.5
t82 -86.5t120 -32t119.5 32z" />
    <glyph glyph-name="Racute" unicode="&#x154;" horiz-adv-x="695" 
d="M171 366v-366h-58v850h274q78 0 139.5 -32t96 -87t34.5 -123q0 -66 -33.5 -120.5t-93.5 -87t-136 -33.5h-30l292 -367h-70l-291 367zM382 418q62 0 111 25t77 68.5t28 97.5t-28 97t-77 67.5t-111 24.5h-211v-380h211zM210 933l-24 43l242 112l23 -43z" />
    <glyph glyph-name="racute" unicode="&#x155;" horiz-adv-x="417" 
d="M163 556v-95q20 43 65.5 73.5t108.5 30.5q31 0 58 -9l-7 -48q-24 6 -50 6q-77 0 -126 -53t-49 -146v-315h-57v556h57zM135 670l-24 44l241 111l24 -43z" />
    <glyph glyph-name="Rcommaaccent" unicode="&#x156;" horiz-adv-x="695" 
d="M171 366v-366h-58v850h274q78 0 139.5 -32t96 -87t34.5 -123q0 -66 -33.5 -120.5t-93.5 -87t-136 -33.5h-30l292 -367h-70l-291 367zM382 418q62 0 111 25t77 68.5t28 97.5t-28 97t-77 67.5t-111 24.5h-211v-380h211zM329 -211h-60l70 131h60z" />
    <glyph glyph-name="rcommaaccent" unicode="&#x157;" horiz-adv-x="417" 
d="M163 556v-95q20 43 65.5 73.5t108.5 30.5q31 0 58 -9l-7 -48q-24 6 -50 6q-77 0 -126 -53t-49 -146v-315h-57v556h57zM95 -211h-60l70 131h60z" />
    <glyph glyph-name="Rcaron" unicode="&#x158;" horiz-adv-x="695" 
d="M171 366v-366h-58v850h274q78 0 139.5 -32t96 -87t34.5 -123q0 -66 -33.5 -120.5t-93.5 -87t-136 -33.5h-30l292 -367h-70l-291 367zM382 418q62 0 111 25t77 68.5t28 97.5t-28 97t-77 67.5t-111 24.5h-211v-380h211zM469 1097l-138 -156l-139 156l33 31l106 -117
l105 117z" />
    <glyph glyph-name="rcaron" unicode="&#x159;" horiz-adv-x="417" 
d="M163 556v-95q20 43 65.5 73.5t108.5 30.5q31 0 58 -9l-7 -48q-24 6 -50 6q-77 0 -126 -53t-49 -146v-315h-57v556h57zM394 816l-138 -156l-139 156l33 30l106 -116l105 116z" />
    <glyph glyph-name="Sacute" unicode="&#x15a;" horiz-adv-x="729" 
d="M504 772.5q-66 35.5 -151 35.5q-79 0 -131.5 -23.5t-77.5 -62.5t-25 -87q0 -58 33.5 -91t83.5 -49t136 -33q99 -20 158 -40t100.5 -65.5t41.5 -126.5q0 -114 -82.5 -178t-234.5 -64q-110 0 -188 36.5t-126 83.5l26 47q50 -47 121.5 -79.5t167.5 -32.5q128 0 192.5 50
t64.5 134q0 59 -34.5 93.5t-85 51t-136.5 33.5q-97 19 -155.5 39.5t-99.5 66t-41 124.5q0 64 34 115.5t100.5 81.5t159.5 30q97 0 171.5 -40.5t116.5 -86.5l-25 -46q-48 48 -114 83.5zM235 933l-24 43l242 112l23 -43z" />
    <glyph glyph-name="sacute" unicode="&#x15b;" horiz-adv-x="551" 
d="M380.5 492.5q-51.5 24.5 -109.5 24.5q-73 0 -115.5 -29.5t-42.5 -73.5q0 -35 22.5 -54.5t55.5 -28.5t92 -19q71 -12 114.5 -25.5t74 -45.5t30.5 -89q0 -77 -62.5 -120.5t-168.5 -43.5q-81 0 -141 26t-91 57l25 45q31 -30 84 -53.5t122 -23.5q79 0 126.5 31t47.5 80
q0 37 -23 58t-58 31t-93 20q-69 11 -111.5 24.5t-72 44.5t-29.5 86q0 44 26 79t74.5 55t113.5 20q70 0 127 -27t87 -57l-24 -44q-29 28 -80.5 52.5zM151 670l-24 44l241 111l24 -43z" />
    <glyph glyph-name="Scircumflex" unicode="&#x15c;" horiz-adv-x="729" 
d="M504 772.5q-66 35.5 -151 35.5q-79 0 -131.5 -23.5t-77.5 -62.5t-25 -87q0 -58 33.5 -91t83.5 -49t136 -33q99 -20 158 -40t100.5 -65.5t41.5 -126.5q0 -114 -82.5 -178t-234.5 -64q-110 0 -188 36.5t-126 83.5l26 47q50 -47 121.5 -79.5t167.5 -32.5q128 0 192.5 50
t64.5 134q0 59 -34.5 93.5t-85 51t-136.5 33.5q-97 19 -155.5 39.5t-99.5 66t-41 124.5q0 64 34 115.5t100.5 81.5t159.5 30q97 0 171.5 -40.5t116.5 -86.5l-25 -46q-48 48 -114 83.5zM355 1058l-106 -117l-33 31l139 156l138 -156l-33 -31z" />
    <glyph glyph-name="scircumflex" unicode="&#x15d;" horiz-adv-x="551" 
d="M380.5 492.5q-51.5 24.5 -109.5 24.5q-73 0 -115.5 -29.5t-42.5 -73.5q0 -35 22.5 -54.5t55.5 -28.5t92 -19q71 -12 114.5 -25.5t74 -45.5t30.5 -89q0 -77 -62.5 -120.5t-168.5 -43.5q-81 0 -141 26t-91 57l25 45q31 -30 84 -53.5t122 -23.5q79 0 126.5 31t47.5 80
q0 37 -23 58t-58 31t-93 20q-69 11 -111.5 24.5t-72 44.5t-29.5 86q0 44 26 79t74.5 55t113.5 20q70 0 127 -27t87 -57l-24 -44q-29 28 -80.5 52.5zM271 777l-106 -117l-33 30l139 156l138 -156l-33 -30z" />
    <glyph glyph-name="Scedilla" unicode="&#x15e;" horiz-adv-x="729" 
d="M504 772.5q-66 35.5 -151 35.5q-79 0 -131.5 -23.5t-77.5 -62.5t-25 -87q0 -58 33.5 -91t83.5 -49t136 -33q99 -20 158 -40t100.5 -65.5t41.5 -126.5q0 -114 -82.5 -178t-234.5 -64q-110 0 -188 36.5t-126 83.5l26 47q50 -47 121.5 -79.5t167.5 -32.5q128 0 192.5 50
t64.5 134q0 59 -34.5 93.5t-85 51t-136.5 33.5q-97 19 -155.5 39.5t-99.5 66t-41 124.5q0 64 34 115.5t100.5 81.5t159.5 30q97 0 171.5 -40.5t116.5 -86.5l-25 -46q-48 48 -114 83.5zM315 -211h-60l70 131h60z" />
    <glyph glyph-name="scedilla" unicode="&#x15f;" horiz-adv-x="551" 
d="M380.5 492.5q-51.5 24.5 -109.5 24.5q-73 0 -115.5 -29.5t-42.5 -73.5q0 -35 22.5 -54.5t55.5 -28.5t92 -19q71 -12 114.5 -25.5t74 -45.5t30.5 -89q0 -77 -62.5 -120.5t-168.5 -43.5q-81 0 -141 26t-91 57l25 45q31 -30 84 -53.5t122 -23.5q79 0 126.5 31t47.5 80
q0 37 -23 58t-58 31t-93 20q-69 11 -111.5 24.5t-72 44.5t-29.5 86q0 44 26 79t74.5 55t113.5 20q70 0 127 -27t87 -57l-24 -44q-29 28 -80.5 52.5zM230 -211h-60l70 131h60z" />
    <glyph glyph-name="Scaron" unicode="&#x160;" horiz-adv-x="729" 
d="M504 772.5q-66 35.5 -151 35.5q-79 0 -131.5 -23.5t-77.5 -62.5t-25 -87q0 -58 33.5 -91t83.5 -49t136 -33q99 -20 158 -40t100.5 -65.5t41.5 -126.5q0 -114 -82.5 -178t-234.5 -64q-110 0 -188 36.5t-126 83.5l26 47q50 -47 121.5 -79.5t167.5 -32.5q128 0 192.5 50
t64.5 134q0 59 -34.5 93.5t-85 51t-136.5 33.5q-97 19 -155.5 39.5t-99.5 66t-41 124.5q0 64 34 115.5t100.5 81.5t159.5 30q97 0 171.5 -40.5t116.5 -86.5l-25 -46q-48 48 -114 83.5zM493 1097l-138 -156l-139 156l33 31l106 -117l105 117z" />
    <glyph glyph-name="scaron" unicode="&#x161;" horiz-adv-x="551" 
d="M380.5 492.5q-51.5 24.5 -109.5 24.5q-73 0 -115.5 -29.5t-42.5 -73.5q0 -35 22.5 -54.5t55.5 -28.5t92 -19q71 -12 114.5 -25.5t74 -45.5t30.5 -89q0 -77 -62.5 -120.5t-168.5 -43.5q-81 0 -141 26t-91 57l25 45q31 -30 84 -53.5t122 -23.5q79 0 126.5 31t47.5 80
q0 37 -23 58t-58 31t-93 20q-69 11 -111.5 24.5t-72 44.5t-29.5 86q0 44 26 79t74.5 55t113.5 20q70 0 127 -27t87 -57l-24 -44q-29 28 -80.5 52.5zM409 816l-138 -156l-139 156l33 30l106 -116l105 116z" />
    <glyph glyph-name="Tcommaaccent" unicode="&#x162;" horiz-adv-x="668" 
d="M363 796v-796h-57v796h-280v54h617v-54h-280zM294 -211h-60l70 131h60z" />
    <glyph glyph-name="tcommaaccent" unicode="&#x163;" horiz-adv-x="390" 
d="M387 506h-173v-506h-57v506h-127v50h127v281h57v-281h173v-50zM145 -211h-60l70 131h60z" />
    <glyph glyph-name="Tcaron" unicode="&#x164;" horiz-adv-x="668" 
d="M363 796v-796h-57v796h-280v54h617v-54h-280zM472 1097l-138 -156l-139 156l33 31l106 -117l105 117z" />
    <glyph glyph-name="tcaron" unicode="&#x165;" horiz-adv-x="390" 
d="M387 506h-173v-506h-57v506h-127v50h127v281h57v-281h173v-50zM274 632l97 243l44 -25l-97 -244z" />
    <glyph glyph-name="Tbar" unicode="&#x166;" horiz-adv-x="668" 
d="M363 796v-345h139v-52h-139v-399h-57v399h-140v52h140v345h-280v54h617v-54h-280z" />
    <glyph glyph-name="tbar" unicode="&#x167;" horiz-adv-x="390" 
d="M214 506v-167h133v-51h-133v-288h-57v288h-85v51h85v167h-127v50h127v281h57v-281h173v-50h-173z" />
    <glyph glyph-name="Utilde" unicode="&#x168;" horiz-adv-x="836" 
d="M722 303q0 -90 -40.5 -162t-110.5 -112.5t-153 -40.5t-153 40.5t-111 112.5t-41 162v547h58v-551q0 -73 33 -132t89.5 -92t124.5 -33t124.5 33t89.5 92t33 132v551h57v-547zM587 1041q-19 -39 -42.5 -58t-55.5 -19q-23 0 -39.5 8t-39.5 23q-20 13 -30.5 18.5t-24.5 5.5
q-20 0 -35 -13.5t-30 -40.5l-34 28q37 77 98 77q23 0 39.5 -8t39.5 -23q20 -13 30.5 -18.5t24.5 -5.5q20 0 35 13.5t30 40.5z" />
    <glyph glyph-name="utilde" unicode="&#x169;" horiz-adv-x="663" 
d="M164 211q0 -47 22.5 -86.5t61.5 -62t86 -22.5q46 0 85 22.5t62 62t23 86.5v345h57v-342q0 -63 -30.5 -115t-82.5 -81.5t-114 -29.5t-114 29.5t-83 81.5t-31 115v342h58v-345zM499 782q-19 -38 -42.5 -57t-55.5 -19q-23 0 -39.5 8t-39.5 23q-20 13 -30.5 18.5t-24.5 5.5
q-20 0 -35 -13.5t-30 -40.5l-34 28q37 76 98 76q23 0 39.5 -8t39.5 -23q20 -13 30.5 -18.5t24.5 -5.5q19 0 34.5 13.5t30.5 40.5z" />
    <glyph glyph-name="Umacron" unicode="&#x16a;" horiz-adv-x="836" 
d="M722 303q0 -90 -40.5 -162t-110.5 -112.5t-153 -40.5t-153 40.5t-111 112.5t-41 162v547h58v-551q0 -73 33 -132t89.5 -92t124.5 -33t124.5 33t89.5 92t33 132v551h57v-547zM277 991v51h290v-51h-290z" />
    <glyph glyph-name="umacron" unicode="&#x16b;" horiz-adv-x="663" 
d="M164 211q0 -47 22.5 -86.5t61.5 -62t86 -22.5q46 0 85 22.5t62 62t23 86.5v345h57v-342q0 -63 -30.5 -115t-82.5 -81.5t-114 -29.5t-114 29.5t-83 81.5t-31 115v342h58v-345zM189 732v50h290v-50h-290z" />
    <glyph glyph-name="Ubreve" unicode="&#x16c;" horiz-adv-x="836" 
d="M722 303q0 -90 -40.5 -162t-110.5 -112.5t-153 -40.5t-153 40.5t-111 112.5t-41 162v547h58v-551q0 -73 33 -132t89.5 -92t124.5 -33t124.5 33t89.5 92t33 132v551h57v-547zM538.5 1002.5q-48.5 -43.5 -116.5 -43.5q-44 0 -82 20t-62 55t-28 79h51q8 -47 41.5 -75.5
t79.5 -28.5t80 28.5t41 75.5h51q-7 -67 -55.5 -110.5z" />
    <glyph glyph-name="ubreve" unicode="&#x16d;" horiz-adv-x="663" 
d="M164 211q0 -47 22.5 -86.5t61.5 -62t86 -22.5q46 0 85 22.5t62 62t23 86.5v345h57v-342q0 -63 -30.5 -115t-82.5 -81.5t-114 -29.5t-114 29.5t-83 81.5t-31 115v342h58v-345zM450.5 729.5q-48.5 -43.5 -116.5 -43.5q-44 0 -82 20t-62 55t-28 79h51q8 -47 41.5 -75.5
t79.5 -28.5t80 28.5t41 75.5h51q-7 -67 -55.5 -110.5z" />
    <glyph glyph-name="Uring" unicode="&#x16e;" horiz-adv-x="836" 
d="M722 303q0 -90 -40.5 -162t-110.5 -112.5t-153 -40.5t-153 40.5t-111 112.5t-41 162v547h58v-551q0 -73 33 -132t89.5 -92t124.5 -33t124.5 33t89.5 92t33 132v551h57v-547zM331.5 965q-37.5 37 -37.5 89q0 34 17 63.5t46.5 46.5t64.5 17q34 0 63.5 -17t46.5 -46.5
t17 -63.5q0 -52 -37 -89t-90 -37t-90.5 37zM480.5 994.5q24.5 24.5 24.5 59.5t-24.5 60t-58.5 25t-58.5 -25t-24.5 -60t24.5 -59.5t58.5 -24.5t58.5 24.5z" />
    <glyph glyph-name="uring" unicode="&#x16f;" horiz-adv-x="663" 
d="M164 211q0 -47 22.5 -86.5t61.5 -62t86 -22.5q46 0 85 22.5t62 62t23 86.5v345h57v-342q0 -63 -30.5 -115t-82.5 -81.5t-114 -29.5t-114 29.5t-83 81.5t-31 115v342h58v-345zM269.5 664q-29.5 17 -46.5 46.5t-17 63.5t17 63.5t46.5 46.5t64.5 17q34 0 63.5 -17
t46.5 -46.5t17 -63.5t-17 -63.5t-46.5 -46.5t-63.5 -17q-35 0 -64.5 17zM393 714.5q24 24.5 24 59.5t-24 59.5t-59 24.5t-59 -24.5t-24 -59.5t24 -59.5t59 -24.5t59 24.5z" />
    <glyph glyph-name="Uhungarumlaut" unicode="&#x170;" horiz-adv-x="836" 
d="M722 303q0 -90 -40.5 -162t-110.5 -112.5t-153 -40.5t-153 40.5t-111 112.5t-41 162v547h58v-551q0 -73 33 -132t89.5 -92t124.5 -33t124.5 33t89.5 92t33 132v551h57v-547zM518 935l-41 26l75 140l42 -25zM346 935l-41 26l76 140l41 -25z" />
    <glyph glyph-name="uhungarumlaut" unicode="&#x171;" horiz-adv-x="663" 
d="M164 211q0 -47 22.5 -86.5t61.5 -62t86 -22.5q46 0 85 22.5t62 62t23 86.5v345h57v-342q0 -63 -30.5 -115t-82.5 -81.5t-114 -29.5t-114 29.5t-83 81.5t-31 115v342h58v-345zM258 656l-41 26l76 139l41 -24zM430 656l-41 26l75 139l42 -24z" />
    <glyph glyph-name="Uogonek" unicode="&#x172;" horiz-adv-x="836" 
d="M722 303q0 -90 -40.5 -162t-110.5 -112.5t-153 -40.5t-153 40.5t-111 112.5t-41 162v547h58v-551q0 -73 33 -132t89.5 -92t124.5 -33t124.5 33t89.5 92t33 132v551h57v-547zM448 -80l70 -131h-60l-70 131h60z" />
    <glyph glyph-name="uogonek" unicode="&#x173;" horiz-adv-x="663" 
d="M164 211q0 -47 22.5 -86.5t61.5 -62t86 -22.5q46 0 85 22.5t62 62t23 86.5v345h57v-342q0 -63 -30.5 -115t-82.5 -81.5t-114 -29.5t-114 29.5t-83 81.5t-31 115v342h58v-345zM364 -80l70 -131h-60l-70 131h60z" />
    <glyph glyph-name="Wcircumflex" unicode="&#x174;" horiz-adv-x="1085" 
d="M300 137l242 739l243 -739l210 713h59l-265 -876l-247 750l-247 -750l-264 876h59zM543 1058l-106 -117l-33 31l139 156l138 -156l-33 -31z" />
    <glyph glyph-name="wcircumflex" unicode="&#x175;" horiz-adv-x="1001" 
d="M501 420l-207 -448l-278 584h60l220 -473l205 447l205 -448l219 474h61l-279 -584zM501 777l-106 -117l-33 30l139 156l138 -156l-33 -30z" />
    <glyph glyph-name="Ycircumflex" unicode="&#x176;" horiz-adv-x="711" 
d="M327 0v382l-314 468h62l280 -419l281 419h61l-313 -468v-382h-57zM356 1058l-106 -117l-33 31l139 156l138 -156l-33 -31z" />
    <glyph glyph-name="ycircumflex" unicode="&#x177;" horiz-adv-x="636" 
d="M319 82l243 474h59l-455 -879h-58l182 350l-274 529h61zM320 777l-106 -117l-33 30l139 156l138 -156l-33 -30z" />
    <glyph glyph-name="Ydieresis" unicode="&#x178;" horiz-adv-x="711" 
d="M327 0v382l-314 468h62l280 -419l281 419h61l-313 -468v-382h-57zM217 991.5q-12 11.5 -12 29.5t12.5 30t29.5 12q18 0 30.5 -12t12.5 -30t-12.5 -29.5t-30.5 -11.5t-30 11.5zM434 991.5q-12 11.5 -12 29.5t12 30t30 12t30 -12t12 -30t-12 -29.5t-30 -11.5t-30 11.5z" />
    <glyph glyph-name="Zacute" unicode="&#x179;" horiz-adv-x="754" 
d="M704 54v-54h-599l438 796h-505v54h598l-438 -796h506zM216 933l-24 43l242 112l23 -43z" />
    <glyph glyph-name="zacute" unicode="&#x17a;" horiz-adv-x="575" 
d="M28 0l404 506h-374v50h483l-405 -506h398v-50h-506zM179 670l-24 44l241 111l24 -43z" />
    <glyph glyph-name="Zdotaccent" unicode="&#x17b;" horiz-adv-x="754" 
d="M704 54v-54h-599l438 796h-505v54h598l-438 -796h506zM305 990.5q-13 12.5 -13 31.5t13 31.5t32 12.5t31.5 -12.5t12.5 -31.5t-12.5 -31.5t-31.5 -12.5t-32 12.5z" />
    <glyph glyph-name="zdotaccent" unicode="&#x17c;" horiz-adv-x="575" 
d="M28 0l404 506h-374v50h483l-405 -506h398v-50h-506zM268 726q-13 12 -13 31t13 31.5t32 12.5t31.5 -12.5t12.5 -31.5t-12.5 -31t-31.5 -12t-32 12z" />
    <glyph glyph-name="Zcaron" unicode="&#x17d;" horiz-adv-x="754" 
d="M704 54v-54h-599l438 796h-505v54h598l-438 -796h506zM475 1097l-138 -156l-139 156l33 31l106 -117l105 117z" />
    <glyph glyph-name="zcaron" unicode="&#x17e;" horiz-adv-x="575" 
d="M28 0l404 506h-374v50h483l-405 -506h398v-50h-506zM438 816l-138 -156l-139 156l33 30l106 -116l105 116z" />
    <glyph glyph-name="florin" unicode="&#x192;" horiz-adv-x="445" 
d="M278.5 786.5q-31.5 -24.5 -39.5 -77.5l-21 -153h173l-8 -51h-173l-117 -836l-56 8l116 828h-133l7 51h133l22 155q11 73 59.5 112t113.5 39q37 0 70 -9.5t53 -23.5l-14 -48q-22 14 -52 22t-62 8q-40 0 -71.5 -24.5z" />
    <glyph glyph-name="Oslashacute" unicode="&#x1fe;" horiz-adv-x="1011" 
d="M887.5 638q55.5 -98 55.5 -213q0 -119 -59 -219t-159 -159t-219 -59q-100 0 -187 42l-88 -159l-48 21l89 163q-94 60 -149 157.5t-55 212.5q0 119 59 219.5t159.5 159t219.5 58.5q98 0 187 -42l87 159l49 -21l-90 -163q93 -59 148.5 -157zM174 240.5q47 -84.5 127 -136.5
l366 667q-77 36 -161 36q-103 0 -190 -51.5t-138 -139t-51 -191.5q0 -100 47 -184.5zM695.5 94.5q86.5 51.5 137.5 139t51 191.5q0 99 -46.5 184t-126.5 137l-367 -667q77 -36 162 -36q103 0 189.5 51.5zM385 933l-24 43l242 112l23 -43z" />
    <glyph glyph-name="oslashacute" unicode="&#x1ff;" horiz-adv-x="704" 
d="M606 418.5q33 -63.5 33 -140.5q0 -82 -37 -148t-102.5 -104t-147.5 -38q-64 0 -118 23l-77 -140l-47 20l79 144q-59 39 -92 102.5t-33 140.5q0 82 37 148t102.5 104t148.5 38q63 0 117 -23l78 140l47 -21l-79 -143q58 -39 91 -102.5zM146.5 166q25.5 -52 70.5 -84
l228 416q-42 18 -93 18q-67 0 -120 -32t-82 -86.5t-29 -119.5q0 -60 25.5 -112zM471.5 72q52.5 32 81.5 86.5t29 119.5q0 61 -25 112.5t-70 83.5l-229 -415q44 -19 94 -19q67 0 119.5 32zM232 670l-24 44l241 111l24 -43z" />
    <glyph glyph-name="Scommaaccent" unicode="&#x218;" horiz-adv-x="729" 
d="M504 772.5q-66 35.5 -151 35.5q-79 0 -131.5 -23.5t-77.5 -62.5t-25 -87q0 -58 33.5 -91t83.5 -49t136 -33q99 -20 158 -40t100.5 -65.5t41.5 -126.5q0 -114 -82.5 -178t-234.5 -64q-110 0 -188 36.5t-126 83.5l26 47q50 -47 121.5 -79.5t167.5 -32.5q128 0 192.5 50
t64.5 134q0 59 -34.5 93.5t-85 51t-136.5 33.5q-97 19 -155.5 39.5t-99.5 66t-41 124.5q0 64 34 115.5t100.5 81.5t159.5 30q97 0 171.5 -40.5t116.5 -86.5l-25 -46q-48 48 -114 83.5zM315 -211h-60l70 131h60z" />
    <glyph glyph-name="scommaaccent" unicode="&#x219;" horiz-adv-x="551" 
d="M380.5 492.5q-51.5 24.5 -109.5 24.5q-73 0 -115.5 -29.5t-42.5 -73.5q0 -35 22.5 -54.5t55.5 -28.5t92 -19q71 -12 114.5 -25.5t74 -45.5t30.5 -89q0 -77 -62.5 -120.5t-168.5 -43.5q-81 0 -141 26t-91 57l25 45q31 -30 84 -53.5t122 -23.5q79 0 126.5 31t47.5 80
q0 37 -23 58t-58 31t-93 20q-69 11 -111.5 24.5t-72 44.5t-29.5 86q0 44 26 79t74.5 55t113.5 20q70 0 127 -27t87 -57l-24 -44q-29 28 -80.5 52.5zM230 -211h-60l70 131h60z" />
    <glyph glyph-name="uni021A" unicode="&#x21a;" horiz-adv-x="668" 
d="M363 796v-796h-57v796h-280v54h617v-54h-280zM294 -211h-60l70 131h60z" />
    <glyph glyph-name="uni021B" unicode="&#x21b;" horiz-adv-x="390" 
d="M387 506h-173v-506h-57v506h-127v50h127v281h57v-281h173v-50zM145 -211h-60l70 131h60z" />
    <glyph glyph-name="uni0237" unicode="&#x237;" 
d="M106 -323v879h57v-879h-57z" />
    <glyph glyph-name="afii57929" unicode="&#x2bc;" horiz-adv-x="349" 
d="M106 632l98 243l44 -25l-97 -244z" />
    <glyph glyph-name="circumflex" unicode="&#x2c6;" horiz-adv-x="484" 
d="M245 777l-106 -117l-33 30l139 156l138 -156l-33 -30z" />
    <glyph glyph-name="caron" unicode="&#x2c7;" horiz-adv-x="484" 
d="M383 816l-138 -156l-139 156l33 30l106 -116l105 116z" />
    <glyph glyph-name="breve" unicode="&#x2d8;" horiz-adv-x="551" 
d="M394.5 729.5q-48.5 -43.5 -116.5 -43.5q-44 0 -82 20t-62 55t-28 79h51q8 -47 41.5 -75.5t79.5 -28.5t80 28.5t41 75.5h51q-7 -67 -55.5 -110.5z" />
    <glyph glyph-name="dotaccent" unicode="&#x2d9;" horiz-adv-x="296" 
d="M119 726q-13 12 -13 31t13 31.5t32 12.5t31.5 -12.5t12.5 -31.5t-12.5 -31t-31.5 -12t-32 12z" />
    <glyph glyph-name="ring" unicode="&#x2da;" horiz-adv-x="463" 
d="M169.5 664q-29.5 17 -46.5 46.5t-17 63.5t17 63.5t46.5 46.5t64.5 17q34 0 63.5 -17t46.5 -46.5t17 -63.5t-17 -63.5t-46.5 -46.5t-63.5 -17q-35 0 -64.5 17zM293 714.5q24 24.5 24 59.5t-24 59.5t-59 24.5t-59 -24.5t-24 -59.5t24 -59.5t59 -24.5t59 24.5z" />
    <glyph glyph-name="ogonek" unicode="&#x2db;" horiz-adv-x="337" 
d="M166 -80l70 -131h-60l-70 131h60z" />
    <glyph glyph-name="tilde" unicode="&#x2dc;" horiz-adv-x="538" 
d="M437 782q-19 -38 -42.5 -57t-55.5 -19q-23 0 -39.5 8t-39.5 23q-20 13 -30.5 18.5t-24.5 5.5q-20 0 -35 -13.5t-30 -40.5l-34 28q37 76 98 76q23 0 39.5 -8t39.5 -23q20 -13 30.5 -18.5t24.5 -5.5q19 0 34.5 13.5t30.5 40.5z" />
    <glyph glyph-name="hungarumlaut" unicode="&#x2dd;" horiz-adv-x="496" 
d="M147 656l-41 26l76 139l41 -24zM319 656l-41 26l75 139l42 -24z" />
    <glyph glyph-name="uni0326" unicode="&#x326;" horiz-adv-x="0" 
d="M-171 -211h-60l70 131h60z" />
    <glyph glyph-name="Wgrave" unicode="&#x1e80;" horiz-adv-x="1085" 
d="M300 137l242 739l243 -739l210 713h59l-265 -876l-247 750l-247 -750l-264 876h59zM445 1088l241 -112l-24 -43l-241 112z" />
    <glyph glyph-name="wgrave" unicode="&#x1e81;" horiz-adv-x="1001" 
d="M501 420l-207 -448l-278 584h60l220 -473l205 447l205 -448l219 474h61l-279 -584zM645 714l-24 -44l-241 112l24 43z" />
    <glyph glyph-name="Wacute" unicode="&#x1e82;" horiz-adv-x="1085" 
d="M300 137l242 739l243 -739l210 713h59l-265 -876l-247 750l-247 -750l-264 876h59zM422 933l-24 43l242 112l23 -43z" />
    <glyph glyph-name="wacute" unicode="&#x1e83;" horiz-adv-x="1001" 
d="M501 420l-207 -448l-278 584h60l220 -473l205 447l205 -448l219 474h61l-279 -584zM380 670l-24 44l241 111l24 -43z" />
    <glyph glyph-name="Wdieresis" unicode="&#x1e84;" horiz-adv-x="1085" 
d="M300 137l242 739l243 -739l210 713h59l-265 -876l-247 750l-247 -750l-264 876h59zM404 991.5q-12 11.5 -12 29.5t12.5 30t29.5 12q18 0 30.5 -12t12.5 -30t-12.5 -29.5t-30.5 -11.5t-30 11.5zM621 991.5q-12 11.5 -12 29.5t12 30t30 12t30 -12t12 -30t-12 -29.5
t-30 -11.5t-30 11.5z" />
    <glyph glyph-name="wdieresis" unicode="&#x1e85;" horiz-adv-x="1001" 
d="M501 420l-207 -448l-278 584h60l220 -473l205 447l205 -448l219 474h61l-279 -584zM362.5 727q-12.5 12 -12.5 30t12 29.5t30 11.5t30.5 -11.5t12.5 -29.5t-12.5 -30t-30.5 -12q-17 0 -29.5 12zM579 727q-12 12 -12 30t12 29.5t30 11.5t30 -11.5t12 -29.5t-12 -30
t-30 -12t-30 12z" />
    <glyph glyph-name="Ygrave" unicode="&#x1ef2;" horiz-adv-x="711" 
d="M327 0v382l-314 468h62l280 -419l281 419h61l-313 -468v-382h-57zM259 1088l241 -112l-24 -43l-241 112z" />
    <glyph glyph-name="ygrave" unicode="&#x1ef3;" horiz-adv-x="636" 
d="M319 82l243 474h59l-455 -879h-58l182 350l-274 529h61zM464 714l-24 -44l-241 112l24 43z" />
    <glyph glyph-name="uni2007" unicode="&#x2007;" horiz-adv-x="400" 
 />
    <glyph glyph-name="uni2008" unicode="&#x2008;" horiz-adv-x="188" 
 />
    <glyph glyph-name="uni200B" unicode="&#x200b;" horiz-adv-x="0" 
 />
    <glyph glyph-name="endash" unicode="&#x2013;" horiz-adv-x="587" 
d="M40 306v52h507v-52h-507z" />
    <glyph glyph-name="emdash" unicode="&#x2014;" horiz-adv-x="961" 
d="M40 306v52h881v-52h-881z" />
    <glyph glyph-name="quoteleft" unicode="&#x2018;" horiz-adv-x="261" 
d="M51 583l113 279l45 -26l-112 -279z" />
    <glyph glyph-name="quoteright" unicode="&#x2019;" horiz-adv-x="261" 
d="M51 583l113 279l45 -26l-112 -279z" />
    <glyph glyph-name="quotesinglbase" unicode="&#x201a;" horiz-adv-x="261" 
d="M51 -185l113 278l45 -26l-112 -278z" />
    <glyph glyph-name="quotedblleft" unicode="&#x201c;" horiz-adv-x="451" 
d="M51 583l113 279l45 -26l-112 -279zM229 583l112 279l46 -26l-113 -279z" />
    <glyph glyph-name="quotedblright" unicode="&#x201d;" horiz-adv-x="438" 
d="M51 583l113 279l45 -26l-112 -279zM229 583l112 279l46 -26l-113 -279z" />
    <glyph glyph-name="quotedblbase" unicode="&#x201e;" horiz-adv-x="438" 
d="M51 -185l113 278l45 -26l-112 -278zM229 -185l112 278l46 -26l-113 -278z" />
    <glyph glyph-name="dagger" unicode="&#x2020;" horiz-adv-x="655" 
d="M356 557h248v-52h-248v-724h-57v724h-248v52h248v293h57v-293z" />
    <glyph glyph-name="daggerdbl" unicode="&#x2021;" horiz-adv-x="655" 
d="M356 556h248v-52h-248v-452h248v-52h-248v-219h-57v219h-248v52h248v452h-248v52h248v294h57v-294z" />
    <glyph glyph-name="bullet" unicode="&#x2022;" horiz-adv-x="468" 
d="M151.5 202q-37.5 22 -59.5 59.5t-22 82.5q0 44 22 82t59.5 60t82.5 22q44 0 82 -22t60 -60t22 -82q0 -45 -22 -82.5t-60 -59.5t-82 -22q-45 0 -82.5 22z" />
    <glyph glyph-name="ellipsis" unicode="&#x2026;" horiz-adv-x="815" 
d="M69 2q-13 13 -13 32t13 32.5t32 13.5t32.5 -13.5t13.5 -32.5t-13.5 -32t-32.5 -13t-32 13zM375 2q-13 13 -13 32t13 32.5t32 13.5t32.5 -13.5t13.5 -32.5t-13.5 -32t-32.5 -13t-32 13zM682 2q-13 13 -13 32t13 32.5t32 13.5t32.5 -13.5t13.5 -32.5t-13.5 -32t-32.5 -13
t-32 13z" />
    <glyph glyph-name="perthousand" unicode="&#x2030;" horiz-adv-x="1453" 
d="M756 832l-456 -845l-40 31l455 845zM147 512.5q-43 25.5 -68.5 68.5t-25.5 94t25.5 94t68.5 68t94 25t94 -25t68 -68t25 -94t-25 -94t-68 -68.5t-94 -25.5t-94 25.5zM311.5 553q32.5 19 51.5 51.5t19 70.5t-19 70.5t-51.5 51.5t-70.5 19t-70.5 -19t-51.5 -51.5t-19 -70.5
t19 -70.5t51.5 -51.5t70.5 -19t70.5 19zM869 337.5q43 -25.5 68.5 -68.5t25.5 -94t-25.5 -94t-68.5 -68t-94 -25t-94 25t-68 68t-25 94t25 94t68 68.5t94 25.5t94 -25.5zM1306 337.5q43 -25.5 68.5 -68.5t25.5 -94t-25.5 -94t-68.5 -68t-94 -25t-94 25t-68 68t-25 94t25 94
t68 68.5t94 25.5t94 -25.5zM705 297q-32 -19 -51 -51.5t-19 -70.5t19 -70.5t51 -51.5t70 -19t70.5 19t51.5 51.5t19 70.5t-19 70.5t-51.5 51.5t-70.5 19t-70 -19zM1141.5 297q-32.5 -19 -51 -51.5t-18.5 -70.5t18.5 -70.5t51 -51.5t70.5 -19t70.5 19t51.5 51.5t19 70.5
t-19 70.5t-51.5 51.5t-70.5 19t-70.5 -19z" />
    <glyph glyph-name="guilsinglleft" unicode="&#x2039;" horiz-adv-x="406" 
d="M139 300l196 -190l-23 -42l-240 232l240 231l23 -42z" />
    <glyph glyph-name="guilsinglright" unicode="&#x203a;" horiz-adv-x="406" 
d="M95 531l240 -231l-240 -232l-23 42l196 190l-196 189z" />
    <glyph glyph-name="franc" unicode="&#x20a3;" horiz-adv-x="705" 
d="M465 193h-72v-193h-55v446h-167v-446h-58v850h460v-54h-402v-298h346q48 0 86 -20.5t59 -55.5t21 -77q0 -59 -40 -101.5t-104 -48.5h-9l156 -195h-67zM596 271.5q32 29.5 32 73.5t-32 73.5t-82 29.5h-121v-206h121q50 0 82 29.5z" />
    <glyph glyph-name="Euro" unicode="&#x20ac;" horiz-adv-x="935" 
d="M303.5 178q53.5 -64 129 -100t160.5 -36q79 0 149.5 30t128.5 84v-68q-54 -45 -125.5 -72.5t-152.5 -27.5q-101 0 -190 43t-150.5 119.5t-84.5 171.5h-132l26 46h102v113h-128l26 46h105q23 95 84.5 171.5t150.5 120t190 43.5q92 0 170 -34t136 -91l-26 -47
q-59 55 -130 86t-150 31q-85 0 -160.5 -36t-128.5 -100t-75 -144h553l-25 -46h-533v-113h470l-26 -46h-438q21 -80 74.5 -144z" />
    <glyph glyph-name="afii61352" unicode="&#x2116;" horiz-adv-x="1586" 
d="M728 121v729h55v-876l-621 755v-729h-56v876zM1302.5 833.5q54.5 -31.5 85 -86.5t30.5 -122t-30.5 -122t-85 -86.5t-122.5 -31.5t-122.5 31.5t-85 86.5t-30.5 122t30.5 122t85 86.5t122.5 31.5t122.5 -31.5zM1277.5 458q42.5 26 66 70t23.5 97t-23.5 97t-66 70t-97.5 26
q-54 0 -96.5 -26t-66 -70t-23.5 -97t23.5 -97t66 -70t96.5 -26q55 0 97.5 26zM1449 0h-537v53h537v-53z" />
    <glyph glyph-name="trademark" unicode="&#x2122;" horiz-adv-x="670" 
d="M547 597v156l-110 -165l-109 165v-156h-36v263l145 -213l146 214v-264h-36zM270 816h-97v-218h-36v218h-96v34h229v-34z" />
    <glyph glyph-name="uni2126" unicode="&#x2126;" horiz-adv-x="1011" 
d="M117 53h213q-77 31 -136.5 87t-92.5 129.5t-33 155.5q0 119 59 219.5t159.5 159t219.5 58.5t219 -58.5t159 -159t59 -219.5q0 -125 -71.5 -225t-189.5 -147h212v-53h-347v48q97 18 173.5 72.5t120 133.5t43.5 171q0 104 -51 191.5t-137.5 139t-189.5 51.5t-190 -51.5
t-138 -139t-51 -191.5q0 -91 43.5 -170.5t120.5 -134t173 -72.5v-48h-347v53z" />
    <glyph glyph-name="arrowleft" unicode="&#x2190;" horiz-adv-x="1159" 
d="M139 425l429 349l24 -46l-343 -277h766v-52h-766l343 -277l-24 -45z" />
    <glyph glyph-name="arrowup" unicode="&#x2191;" horiz-adv-x="1000" 
d="M804 423l-278 343v-766h-52v766l-277 -343l-45 24l348 429l349 -429z" />
    <glyph glyph-name="arrowright" unicode="&#x2192;" horiz-adv-x="1159" 
d="M567 122l343 277h-766v52h766l-343 277l24 46l429 -349l-429 -348z" />
    <glyph glyph-name="arrowdown" unicode="&#x2193;" horiz-adv-x="1000" 
d="M500 -26l-348 429l45 24l277 -343v766h52v-766l278 343l45 -24z" />
    <glyph glyph-name="arrowboth" unicode="&#x2194;" horiz-adv-x="1625" 
d="M1058 77l-25 45l343 277h-1127l343 -277l-24 -45l-429 348l429 349l24 -46l-343 -277h1127l-343 277l25 46l428 -349z" />
    <glyph glyph-name="arrowupdn" unicode="&#x2195;" horiz-adv-x="1000" 
d="M849 182l-349 -428l-348 428l45 25l277 -343v1122l-277 -343l-45 25l348 428l349 -428l-45 -25l-278 343v-1122l278 343z" />
    <glyph glyph-name="uni2196" unicode="&#x2196;" horiz-adv-x="1048" 
d="M744 644h-451l550 -549l-37 -37l-549 549v-450h-52v539h539v-52z" />
    <glyph glyph-name="uni2197" unicode="&#x2197;" horiz-adv-x="1048" 
d="M843 696v-539h-51v450l-550 -549l-37 37l550 549h-451v52h539z" />
    <glyph glyph-name="uni2198" unicode="&#x2198;" horiz-adv-x="1048" 
d="M304 218h451l-550 549l37 37l550 -549v450h51v-538h-539v51z" />
    <glyph glyph-name="uni2199" unicode="&#x2199;" horiz-adv-x="1048" 
d="M205 167v538h52v-450l549 549l37 -37l-550 -549h451v-51h-539z" />
    <glyph glyph-name="partialdiff" unicode="&#x2202;" horiz-adv-x="637" 
d="M398.5 684q101.5 -111 139 -219t37.5 -204q0 -76 -34 -138t-95 -97t-138 -35q-76 0 -137 35.5t-95.5 97t-34.5 137.5t34.5 137.5t95.5 97t137 35.5q52 0 94.5 -17.5t71.5 -51.5q-39 105 -132.5 204.5t-246.5 165.5l24 44q178 -81 279.5 -192zM417 72.5q48 29.5 74.5 79.5
t26.5 109q0 65 -26 114.5t-73.5 76t-110.5 26.5q-61 0 -109 -29t-74.5 -79t-26.5 -109t26.5 -109t74.5 -79.5t109 -29.5t109 29.5z" />
    <glyph glyph-name="emptyset" unicode="&#x2205;" horiz-adv-x="918" 
d="M799.5 511.5q34.5 -74.5 34.5 -160.5q0 -104 -49.5 -190t-135.5 -136t-190 -50q-60 0 -115 17.5t-102 49.5l-52 -67h-43l68 88q-62 53 -96.5 127.5t-34.5 160.5q0 104 49.5 190.5t135.5 136.5t190 50q121 0 217 -68l52 67h44l-68 -88q61 -53 95.5 -127.5zM168 215.5
q28 -64.5 79 -110.5l398 514q-80 61 -186 61q-90 0 -163 -45t-114.5 -120.5t-41.5 -163.5q0 -71 28 -135.5zM622 68q73 45 115 120.5t42 162.5q0 71 -28.5 135.5t-78.5 110.5l-399 -514q82 -60 186 -60q90 0 163 45z" />
    <glyph glyph-name="uni2206" unicode="&#x2206;" horiz-adv-x="978" 
d="M961 0h-944l472 876zM868 53l-379 708l-380 -708h759z" />
    <glyph glyph-name="product" unicode="&#x220f;" horiz-adv-x="843" 
d="M716 -139v935h-589v-942h-57v996h703v-989h-57z" />
    <glyph glyph-name="summation" unicode="&#x2211;" horiz-adv-x="722" 
d="M157 52h490v-52h-630l490 425l-490 425h630v-52h-490l429 -373z" />
    <glyph glyph-name="minus" unicode="&#x2212;" horiz-adv-x="542" 
d="M69 322v52h404v-52h-404z" />
    <glyph glyph-name="uni2219" unicode="&#x2219;" horiz-adv-x="199" 
d="M68.5 308q-12.5 12 -12.5 31t12.5 31.5t30.5 12.5q19 0 31.5 -12.5t12.5 -31.5t-12.5 -31t-31.5 -12q-18 0 -30.5 12z" />
    <glyph glyph-name="radical" unicode="&#x221a;" horiz-adv-x="917" 
d="M959 850l-576 -995l-219 406l-79 -45l-23 40l127 71l195 -363l533 920z" />
    <glyph glyph-name="infinity" unicode="&#x221e;" horiz-adv-x="805" 
d="M656.5 495q38.5 -24 60.5 -63.5t22 -83.5t-22 -83.5t-60.5 -63.5t-83.5 -24q-58 0 -96 34t-74 97q-38 -63 -75.5 -97t-94.5 -34q-45 0 -83.5 24t-61 63.5t-22.5 83.5q0 45 22.5 84t61 63t83.5 24q57 0 94.5 -34t75.5 -97q36 63 74 97t96 34q45 0 83.5 -24zM291.5 238
q24.5 17 42 41.5t42.5 68.5q-25 44 -42.5 68.5t-42 41.5t-56.5 17q-33 0 -60.5 -17.5t-44 -46.5t-16.5 -63q0 -33 16.5 -62.5t44 -47t60.5 -17.5q32 0 56.5 17zM630.5 239q27.5 18 44 47t16.5 62t-16.5 62.5t-44 47t-59.5 17.5t-56.5 -17t-42.5 -41.5t-43 -68.5
q25 -44 43 -68.5t42.5 -41.5t56.5 -17t59.5 18z" />
    <glyph glyph-name="integral" unicode="&#x222b;" horiz-adv-x="438" 
d="M416 1041.5q34 -9.5 56 -23.5l-7 -48q-24 14 -55 22t-63 8q-41 0 -69 -24.5t-28 -77.5v-1082q0 -73 -43.5 -112t-107.5 -39q-37 0 -71 9.5t-57 23.5l8 48q23 -14 54 -22t63 -8q41 0 69 24.5t28 77.5v1081q0 73 43.5 112.5t107.5 39.5q38 0 72 -9.5z" />
    <glyph glyph-name="approxequal" unicode="&#x2248;" horiz-adv-x="595" 
d="M125 474q29 16 69 16q27 0 51 -8t58 -24q29 -14 51 -21.5t46 -7.5q37 0 67 16t58 41v-52q-25 -22 -55 -38.5t-70 -16.5q-27 0 -51 8t-58 24q-29 14 -51 21.5t-46 7.5q-37 0 -67 -16t-58 -41v52q27 23 56 39zM125 304q29 16 69 16q27 0 51 -8t58 -24q29 -14 51 -21.5
t46 -7.5q37 0 67 16t58 41v-52q-25 -22 -55 -38.5t-70 -16.5q-27 0 -51 8t-58 24q-29 14 -51 21.5t-46 7.5q-37 0 -67 -16t-58 -41v52q27 23 56 39z" />
    <glyph glyph-name="notequal" unicode="&#x2260;" horiz-adv-x="551" 
d="M265 279h217v-52h-246l-59 -101h-60l59 101h-107v52h136l81 138h-217v52h247l59 101h59l-59 -101h107v-52h-136z" />
    <glyph glyph-name="lessequal" unicode="&#x2264;" horiz-adv-x="672" 
d="M72 425l528 251v-52l-415 -199l415 -199v-53zM600 0h-528v52h528v-52z" />
    <glyph glyph-name="greaterequal" unicode="&#x2265;" horiz-adv-x="672" 
d="M72 226l414 199l-414 199v52l528 -251l-528 -252v53zM600 52v-52h-528v52h528z" />
    <glyph glyph-name="lozenge" unicode="&#x25ca;" horiz-adv-x="739" 
d="M369 -27l-331 452l331 452l331 -452zM369 790l-267 -365l267 -365l268 365z" />
    <glyph glyph-name="uniFB01" unicode="&#xfb01;" horiz-adv-x="667" 
d="M237 788q-27 -24 -27 -75v-157h173v-50h-173v-506h-57v506h-127v50h127v158q0 72 42.5 110.5t105.5 38.5q36 0 69.5 -10t54.5 -23l-7 -48q-24 14 -54 22t-61 8q-39 0 -66 -24zM508 556h57v-556h-57v556zM505 726q-13 12 -13 31t13 31.5t32 12.5t31.5 -12.5t12.5 -31.5
t-12.5 -31t-31.5 -12t-32 12z" />
    <glyph glyph-name="uniFB02" unicode="&#xfb02;" horiz-adv-x="657" 
d="M237 788q-27 -24 -27 -75v-157h173v-50h-173v-506h-57v506h-127v50h127v158q0 72 42.5 110.5t105.5 38.5q36 0 69.5 -10t54.5 -23l-7 -48q-24 14 -54 22t-61 8q-39 0 -66 -24zM498 850h57v-850h-57v850z" />
    <glyph glyph-name="i.aalt" 
d="M106 556h57v-556h-57v556zM103 726q-13 12 -13 31t13 31.5t32 12.5t31.5 -12.5t12.5 -31.5t-12.5 -31t-31.5 -12t-32 12z" />
    <glyph glyph-name="f_i.dlig" horiz-adv-x="667" 
d="M237 788q-27 -24 -27 -75v-157h173v-50h-173v-506h-57v506h-127v50h127v158q0 72 42.5 110.5t105.5 38.5q36 0 69.5 -10t54.5 -23l-7 -48q-24 14 -54 22t-61 8q-39 0 -66 -24zM508 556h57v-556h-57v556zM505 726q-13 12 -13 31t13 31.5t32 12.5t31.5 -12.5t12.5 -31.5
t-12.5 -31t-31.5 -12t-32 12z" />
    <glyph glyph-name="f_l.dlig" horiz-adv-x="657" 
d="M237 788q-27 -24 -27 -75v-157h173v-50h-173v-506h-57v506h-127v50h127v158q0 72 42.5 110.5t105.5 38.5q36 0 69.5 -10t54.5 -23l-7 -48q-24 14 -54 22t-61 8q-39 0 -66 -24zM498 850h57v-850h-57v850z" />
    <glyph glyph-name="one.tnum" horiz-adv-x="309" 
d="M183 0h-57v850h57v-850z" />
    <glyph glyph-name="glyph320" horiz-adv-x="279" 
 />
    <glyph glyph-name="uni0326.aalt" horiz-adv-x="0" 
d="M-171 -211h-60l70 131h60z" />
    <glyph glyph-name="glyph396" horiz-adv-x="241" 
d="M50 632l97 243l44 -25l-97 -244z" />
    <glyph glyph-name="acute.aalt" horiz-adv-x="472" 
d="M130 933l-24 43l242 112l23 -43z" />
    <glyph glyph-name="breve.aalt" horiz-adv-x="551" 
d="M394.5 1002.5q-48.5 -43.5 -116.5 -43.5q-44 0 -82 20t-62 55t-28 79h51q8 -47 41.5 -75.5t79.5 -28.5t80 28.5t41 75.5h51q-7 -67 -55.5 -110.5z" />
    <glyph glyph-name="caron.aalt" horiz-adv-x="484" 
d="M383 1097l-138 -156l-139 156l33 31l106 -117l105 117z" />
    <glyph glyph-name="cedilla.aalt" horiz-adv-x="337" 
d="M166 -211h-60l70 131h60z" />
    <glyph glyph-name="circumflex.aalt" horiz-adv-x="484" 
d="M245 1058l-106 -117l-33 31l139 156l138 -156l-33 -31z" />
    <glyph glyph-name="dieresis.aalt" horiz-adv-x="508" 
d="M118 991.5q-12 11.5 -12 29.5t12.5 30t29.5 12q18 0 30.5 -12t12.5 -30t-12.5 -29.5t-30.5 -11.5t-30 11.5zM335 991.5q-12 11.5 -12 29.5t12 30t30 12t30 -12t12 -30t-12 -29.5t-30 -11.5t-30 11.5z" />
    <glyph glyph-name="dotaccent.aalt" horiz-adv-x="296" 
d="M119 990.5q-13 12.5 -13 31.5t13 31.5t32 12.5t31.5 -12.5t12.5 -31.5t-12.5 -31.5t-31.5 -12.5t-32 12.5z" />
    <glyph glyph-name="grave.aalt" horiz-adv-x="472" 
d="M130 1088l241 -112l-24 -43l-241 112z" />
    <glyph glyph-name="hungarumlaut.aalt" horiz-adv-x="496" 
d="M319 935l-41 26l75 140l42 -25zM147 935l-41 26l76 140l41 -25z" />
    <glyph glyph-name="macron.aalt" horiz-adv-x="497" 
d="M106 991v51h290v-51h-290z" />
    <glyph glyph-name="ogonek.aalt" horiz-adv-x="337" 
d="M166 -80l70 -131h-60l-70 131h60z" />
    <glyph glyph-name="ring.aalt" horiz-adv-x="463" 
d="M143.5 965q-37.5 37 -37.5 89q0 34 17 63.5t46.5 46.5t64.5 17q34 0 63.5 -17t46.5 -46.5t17 -63.5q0 -52 -37 -89t-90 -37t-90.5 37zM292.5 994.5q24.5 24.5 24.5 59.5t-24.5 60t-58.5 25t-58.5 -25t-24.5 -60t24.5 -59.5t58.5 -24.5t58.5 24.5z" />
    <glyph glyph-name="tilde.aalt" horiz-adv-x="538" 
d="M437 1041q-19 -39 -42.5 -58t-55.5 -19q-23 0 -39.5 8t-39.5 23q-20 13 -30.5 18.5t-24.5 5.5q-20 0 -35 -13.5t-30 -40.5l-34 28q37 77 98 77q23 0 39.5 -8t39.5 -23q20 -13 30.5 -18.5t24.5 -5.5q20 0 35 13.5t30 40.5z" />
    <glyph glyph-name="glyph410" horiz-adv-x="428" 
d="M55 252v52h319v-52h-319z" />
    </font>
</defs>
</svg>
